NotoSerifHebrew-Bold.ufo
<glyph name="etnahtaleft-hb" format="2">
  <unicode hex="0591"/>
  <note>
uni0591
</note>
  <anchor x="158" y="0" name="_bottomleft"/>
  <outline>
    <contour>
      <point x="130" y="-64" type="line"/>
      <point x="130" y="-114" type="line"/>
      <point x="98" y="-121"/>
      <point x="77" y="-137"/>
      <point x="65" y="-161" type="curve" smooth="yes"/>
      <point x="54" y="-184"/>
      <point x="50" y="-203"/>
      <point x="50" y="-232" type="curve" smooth="yes"/>
      <point x="50" y="-249"/>
      <point x="51" y="-264"/>
      <point x="53" y="-279" type="curve"/>
      <point x="103" y="-276" type="line"/>
      <point x="100" y="-259"/>
      <point x="100" y="-245"/>
      <point x="100" y="-232" type="curve" smooth="yes"/>
      <point x="100" y="-184"/>
      <point x="119" y="-160"/>
      <point x="155" y="-160" type="curve" smooth="yes"/>
      <point x="190" y="-160"/>
      <point x="212" y="-185"/>
      <point x="212" y="-234" type="curve" smooth="yes"/>
      <point x="212" y="-249"/>
      <point x="211" y="-261"/>
      <point x="208" y="-279" type="curve"/>
      <point x="259" y="-276" type="line"/>
      <point x="260" y="-260"/>
      <point x="261" y="-244"/>
      <point x="261" y="-227" type="curve" smooth="yes"/>
      <point x="261" y="-201"/>
      <point x="260" y="-184"/>
      <point x="247" y="-160" type="curve" smooth="yes"/>
      <point x="235" y="-138"/>
      <point x="214" y="-121"/>
      <point x="182" y="-114" type="curve"/>
      <point x="182" y="-61" type="line"/>
    </contour>
  </outline>
</glyph>
<glyph name="segolta-hb" format="2">
  <unicode hex="0592"/>
  <note>
uni0592
</note>
  <anchor x="230" y="536" name="_topleft"/>
  <outline>
    <contour>
      <point x="165" y="778" type="curve" smooth="yes"/>
      <point x="191" y="778"/>
      <point x="216" y="791"/>
      <point x="216" y="820" type="curve" smooth="yes"/>
      <point x="216" y="848"/>
      <point x="191" y="862"/>
      <point x="165" y="862" type="curve" smooth="yes"/>
      <point x="136" y="862"/>
      <point x="114" y="848"/>
      <point x="114" y="820" type="curve" smooth="yes"/>
      <point x="114" y="791"/>
      <point x="136" y="778"/>
    </contour>
    <contour>
      <point x="101" y="673" type="curve" smooth="yes"/>
      <point x="129" y="673"/>
      <point x="152" y="686"/>
      <point x="152" y="715" type="curve" smooth="yes"/>
      <point x="152" y="743"/>
      <point x="129" y="757"/>
      <point x="101" y="757" type="curve" smooth="yes"/>
      <point x="73" y="757"/>
      <point x="50" y="743"/>
      <point x="50" y="715" type="curve" smooth="yes"/>
      <point x="50" y="686"/>
      <point x="73" y="673"/>
    </contour>
    <contour>
      <point x="230" y="673" type="curve" smooth="yes"/>
      <point x="256" y="673"/>
      <point x="281" y="686"/>
      <point x="281" y="715" type="curve" smooth="yes"/>
      <point x="281" y="743"/>
      <point x="256" y="757"/>
      <point x="230" y="757" type="curve" smooth="yes"/>
      <point x="201" y="757"/>
      <point x="179" y="743"/>
      <point x="179" y="715" type="curve" smooth="yes"/>
      <point x="179" y="686"/>
      <point x="201" y="673"/>
    </contour>
  </outline>
</glyph>
<glyph name="shalshelet-hb" format="2">
  <unicode hex="0593"/>
  <note>
uni0593
</note>
  <anchor x="137" y="536" name="_top"/>
  <outline>
    <contour>
      <point x="50" y="642" type="line"/>
      <point x="120" y="642" type="line"/>
      <point x="224" y="692" type="line"/>
      <point x="132" y="744" type="line"/>
      <point x="224" y="794" type="line"/>
      <point x="132" y="845" type="line"/>
      <point x="224" y="896" type="line"/>
      <point x="142" y="896" type="line"/>
      <point x="50" y="845" type="line"/>
      <point x="142" y="794" type="line"/>
      <point x="50" y="744" type="line"/>
      <point x="142" y="692" type="line"/>
    </contour>
  </outline>
</glyph>
<glyph name="zaqefqatan-hb" format="2">
  <unicode hex="0594"/>
  <note>
uni0594
</note>
  <anchor x="101" y="536" name="_top"/>
  <outline>
    <contour>
      <point x="101" y="778" type="curve" smooth="yes"/>
      <point x="127" y="778"/>
      <point x="152" y="791"/>
      <point x="152" y="820" type="curve" smooth="yes"/>
      <point x="152" y="848"/>
      <point x="127" y="862"/>
      <point x="101" y="862" type="curve" smooth="yes"/>
      <point x="72" y="862"/>
      <point x="50" y="848"/>
      <point x="50" y="820" type="curve"/>
      <point x="50" y="791"/>
      <point x="72" y="778"/>
    </contour>
    <contour>
      <point x="101" y="673" type="curve" smooth="yes"/>
      <point x="129" y="673"/>
      <point x="152" y="686"/>
      <point x="152" y="715" type="curve" smooth="yes"/>
      <point x="152" y="743"/>
      <point x="129" y="757"/>
      <point x="101" y="757" type="curve" smooth="yes"/>
      <point x="73" y="757"/>
      <point x="50" y="743"/>
      <point x="50" y="715" type="curve" smooth="yes"/>
      <point x="50" y="686"/>
      <point x="73" y="673"/>
    </contour>
  </outline>
</glyph>
<glyph name="zaqefgadol-hb" format="2">
  <unicode hex="0595"/>
  <note>
uni0595
</note>
  <anchor x="139" y="536" name="_top"/>
  <outline>
    <contour>
      <point x="50" y="673" type="line"/>
      <point x="107" y="676" type="line"/>
      <point x="107" y="862" type="line"/>
      <point x="50" y="859" type="line"/>
    </contour>
    <contour>
      <point x="197" y="673" type="curve" smooth="yes"/>
      <point x="225" y="673"/>
      <point x="248" y="686"/>
      <point x="248" y="715" type="curve" smooth="yes"/>
      <point x="248" y="743"/>
      <point x="225" y="757"/>
      <point x="197" y="757" type="curve" smooth="yes"/>
      <point x="169" y="757"/>
      <point x="146" y="743"/>
      <point x="146" y="715" type="curve" smooth="yes"/>
      <point x="146" y="686"/>
      <point x="169" y="673"/>
    </contour>
    <contour>
      <point x="197" y="778" type="curve" smooth="yes"/>
      <point x="223" y="778"/>
      <point x="248" y="791"/>
      <point x="248" y="820" type="curve" smooth="yes"/>
      <point x="248" y="848"/>
      <point x="223" y="862"/>
      <point x="197" y="862" type="curve" smooth="yes"/>
      <point x="168" y="862"/>
      <point x="146" y="848"/>
      <point x="146" y="820" type="curve"/>
      <point x="146" y="791"/>
      <point x="168" y="778"/>
    </contour>
  </outline>
</glyph>
<glyph name="reviamugrash-hb" format="2">
  <unicode hex="0597"/>
  <note>
uni0597
</note>
  <anchor x="170" y="536" name="_topleft"/>
  <outline>
    <contour>
      <point x="135" y="640" type="line"/>
      <point x="220" y="733" type="line"/>
      <point x="135" y="827" type="line"/>
      <point x="50" y="733" type="line"/>
    </contour>
  </outline>
</glyph>
<glyph name="zarqa-hb" format="2">
  <unicode hex="0598"/>
  <note>
uni0598
</note>
  <anchor x="217" y="536" name="_top"/>
  <outline>
    <contour>
      <point x="111" y="642" type="curve"/>
      <point x="126" y="682" type="line"/>
      <point x="105" y="691"/>
      <point x="94" y="705"/>
      <point x="94" y="730" type="curve" smooth="yes"/>
      <point x="94" y="756"/>
      <point x="109" y="773"/>
      <point x="130" y="773" type="curve" smooth="yes"/>
      <point x="155" y="773"/>
      <point x="168" y="760"/>
      <point x="201" y="713" type="curve" smooth="yes"/>
      <point x="238" y="659"/>
      <point x="266" y="643"/>
      <point x="304" y="643" type="curve" smooth="yes"/>
      <point x="350" y="643"/>
      <point x="384" y="675"/>
      <point x="384" y="725" type="curve" smooth="yes"/>
      <point x="384" y="768"/>
      <point x="364" y="797"/>
      <point x="323" y="813" type="curve"/>
      <point x="308" y="773" type="line"/>
      <point x="329" y="764"/>
      <point x="340" y="749"/>
      <point x="340" y="725" type="curve" smooth="yes"/>
      <point x="340" y="698"/>
      <point x="325" y="683"/>
      <point x="304" y="683" type="curve" smooth="yes"/>
      <point x="280" y="683"/>
      <point x="263" y="699"/>
      <point x="233" y="740" type="curve" smooth="yes"/>
      <point x="193" y="796"/>
      <point x="168" y="812"/>
      <point x="132" y="812" type="curve" smooth="yes"/>
      <point x="84" y="812"/>
      <point x="50" y="778"/>
      <point x="50" y="730" type="curve" smooth="yes"/>
      <point x="50" y="685"/>
      <point x="70" y="655"/>
    </contour>
  </outline>
</glyph>
<glyph name="pashta-hb" format="2">
  <unicode hex="0599"/>
  <note>
uni0599
</note>
  <anchor x="166" y="536" name="_topleft"/>
  <outline>
    <contour>
      <point x="50" y="822" type="line"/>
      <point x="80" y="814"/>
      <point x="100" y="801"/>
      <point x="109" y="785" type="curve" smooth="yes"/>
      <point x="123" y="760"/>
      <point x="121" y="700"/>
      <point x="117" y="657" type="curve"/>
      <point x="170" y="660" type="line"/>
      <point x="175" y="733"/>
      <point x="175" y="785"/>
      <point x="153" y="818" type="curve" smooth="yes"/>
      <point x="133" y="844"/>
      <point x="100" y="867"/>
      <point x="54" y="877" type="curve"/>
    </contour>
  </outline>
</glyph>
<glyph name="yetiv-hb" format="2">
  <unicode hex="059A"/>
  <note>
uni059A
</note>
  <anchor x="171" y="0" name="_bottomleft"/>
  <outline>
    <contour>
      <point x="154" y="-264" type="line"/>
      <point x="199" y="-237" type="line"/>
      <point x="122" y="-160" type="line"/>
      <point x="199" y="-83" type="line"/>
      <point x="154" y="-56" type="line"/>
      <point x="50" y="-160" type="line"/>
    </contour>
  </outline>
</glyph>
<glyph name="tevirleft-hb" format="2">
  <unicode hex="059B"/>
  <note>
uni059B
</note>
  <anchor x="199" y="0" name="_bottomleft"/>
  <outline>
    <contour>
      <point x="89" y="-152" type="curve" smooth="yes"/>
      <point x="111" y="-152"/>
      <point x="128" y="-135"/>
      <point x="128" y="-112" type="curve" smooth="yes"/>
      <point x="128" y="-90"/>
      <point x="111" y="-73"/>
      <point x="89" y="-73" type="curve" smooth="yes"/>
      <point x="67" y="-73"/>
      <point x="50" y="-91"/>
      <point x="50" y="-112" type="curve" smooth="yes"/>
      <point x="50" y="-135"/>
      <point x="67" y="-152"/>
    </contour>
    <contour>
      <point x="113" y="-234" type="curve"/>
      <point x="110" y="-290" type="line"/>
      <point x="156" y="-279"/>
      <point x="193" y="-257"/>
      <point x="213" y="-230" type="curve" smooth="yes"/>
      <point x="235" y="-198"/>
      <point x="235" y="-146"/>
      <point x="230" y="-73" type="curve"/>
      <point x="177" y="-76" type="line"/>
      <point x="181" y="-119"/>
      <point x="183" y="-172"/>
      <point x="169" y="-198" type="curve" smooth="yes"/>
      <point x="160" y="-214"/>
      <point x="143" y="-227"/>
    </contour>
  </outline>
</glyph>
<glyph name="gereshaccent-hb" format="2">
  <unicode hex="059C"/>
  <note>
uni059C
</note>
  <anchor x="80" y="536" name="_topleft"/>
  <outline>
    <contour>
      <point x="173" y="822" type="curve"/>
      <point x="168" y="877" type="line"/>
      <point x="122" y="867"/>
      <point x="89" y="844"/>
      <point x="70" y="818" type="curve" smooth="yes"/>
      <point x="48" y="785"/>
      <point x="48" y="733"/>
      <point x="53" y="660" type="curve"/>
      <point x="105" y="657" type="line"/>
      <point x="102" y="700"/>
      <point x="100" y="760"/>
      <point x="114" y="785" type="curve" smooth="yes"/>
      <point x="122" y="801"/>
      <point x="143" y="814"/>
    </contour>
  </outline>
</glyph>
<glyph name="gershayimaccent-hb" format="2">
  <unicode hex="059E"/>
  <note>
uni059E
</note>
  <anchor x="160" y="536" name="_top"/>
  <outline>
    <contour>
      <point x="173" y="822" type="curve"/>
      <point x="168" y="877" type="line"/>
      <point x="122" y="867"/>
      <point x="89" y="844"/>
      <point x="70" y="818" type="curve" smooth="yes"/>
      <point x="48" y="785"/>
      <point x="48" y="733"/>
      <point x="53" y="660" type="curve"/>
      <point x="105" y="657" type="line"/>
      <point x="102" y="700"/>
      <point x="100" y="760"/>
      <point x="114" y="785" type="curve" smooth="yes"/>
      <point x="122" y="801"/>
      <point x="143" y="814"/>
    </contour>
    <contour>
      <point x="314" y="822" type="curve"/>
      <point x="310" y="877" type="line"/>
      <point x="264" y="867"/>
      <point x="231" y="844"/>
      <point x="211" y="818" type="curve" smooth="yes"/>
      <point x="189" y="785"/>
      <point x="189" y="733"/>
      <point x="194" y="660" type="curve"/>
      <point x="247" y="657" type="line"/>
      <point x="243" y="700"/>
      <point x="241" y="760"/>
      <point x="255" y="785" type="curve" smooth="yes"/>
      <point x="264" y="801"/>
      <point x="284" y="814"/>
    </contour>
  </outline>
</glyph>
<glyph name="qarneypara-hb" format="2">
  <unicode hex="059F"/>
  <note>
uni059F
</note>
  <anchor x="293" y="536" name="_top"/>
  <outline>
    <contour>
      <point x="345" y="660" type="line"/>
      <point x="386" y="701" type="line"/>
      <point x="401" y="693"/>
      <point x="417" y="690"/>
      <point x="435" y="690" type="curve" smooth="yes"/>
      <point x="492" y="690"/>
      <point x="536" y="734"/>
      <point x="536" y="789" type="curve" smooth="yes"/>
      <point x="536" y="846"/>
      <point x="491" y="889"/>
      <point x="435" y="889" type="curve" smooth="yes"/>
      <point x="380" y="889"/>
      <point x="335" y="845"/>
      <point x="335" y="789" type="curve" smooth="yes"/>
      <point x="335" y="771"/>
      <point x="340" y="754"/>
      <point x="349" y="740" type="curve"/>
      <point x="307" y="699" type="line"/>
    </contour>
    <contour>
      <point x="241" y="660" type="line"/>
      <point x="279" y="699" type="line"/>
      <point x="237" y="740" type="line"/>
      <point x="246" y="754"/>
      <point x="251" y="771"/>
      <point x="251" y="789" type="curve" smooth="yes"/>
      <point x="251" y="845"/>
      <point x="206" y="889"/>
      <point x="151" y="889" type="curve" smooth="yes"/>
      <point x="95" y="889"/>
      <point x="50" y="845"/>
      <point x="50" y="789" type="curve" smooth="yes"/>
      <point x="50" y="734"/>
      <point x="94" y="690"/>
      <point x="151" y="690" type="curve" smooth="yes"/>
      <point x="169" y="690"/>
      <point x="185" y="693"/>
      <point x="200" y="701" type="curve"/>
    </contour>
    <contour>
      <point x="152" y="739" type="curve" smooth="yes"/>
      <point x="124" y="739"/>
      <point x="100" y="763"/>
      <point x="100" y="789" type="curve" smooth="yes"/>
      <point x="100" y="816"/>
      <point x="125" y="840"/>
      <point x="152" y="840" type="curve" smooth="yes"/>
      <point x="177" y="840"/>
      <point x="201" y="817"/>
      <point x="201" y="789" type="curve" smooth="yes"/>
      <point x="201" y="762"/>
      <point x="179" y="739"/>
    </contour>
    <contour>
      <point x="434" y="739" type="curve" smooth="yes"/>
      <point x="407" y="739"/>
      <point x="385" y="762"/>
      <point x="385" y="789" type="curve" smooth="yes"/>
      <point x="385" y="817"/>
      <point x="409" y="840"/>
      <point x="434" y="840" type="curve" smooth="yes"/>
      <point x="461" y="840"/>
      <point x="486" y="816"/>
      <point x="486" y="789" type="curve" smooth="yes"/>
      <point x="486" y="763"/>
      <point x="462" y="739"/>
    </contour>
  </outline>
</glyph>
<glyph name="telishagedola-hb" format="2">
  <unicode hex="05A0"/>
  <note>
uni05A0
</note>
  <anchor x="164" y="536" name="_top"/>
  <outline>
    <contour>
      <point x="88" y="660" type="line"/>
      <point x="129" y="701" type="line"/>
      <point x="144" y="693"/>
      <point x="160" y="690"/>
      <point x="178" y="690" type="curve" smooth="yes"/>
      <point x="235" y="690"/>
      <point x="278" y="734"/>
      <point x="278" y="789" type="curve" smooth="yes"/>
      <point x="278" y="846"/>
      <point x="234" y="889"/>
      <point x="178" y="889" type="curve" smooth="yes"/>
      <point x="122" y="889"/>
      <point x="77" y="845"/>
      <point x="77" y="789" type="curve" smooth="yes"/>
      <point x="77" y="771"/>
      <point x="83" y="754"/>
      <point x="91" y="740" type="curve"/>
      <point x="50" y="699" type="line"/>
    </contour>
    <contour>
      <point x="177" y="739" type="curve" smooth="yes"/>
      <point x="150" y="739"/>
      <point x="128" y="762"/>
      <point x="128" y="789" type="curve" smooth="yes"/>
      <point x="128" y="817"/>
      <point x="151" y="840"/>
      <point x="177" y="840" type="curve" smooth="yes"/>
      <point x="204" y="840"/>
      <point x="228" y="816"/>
      <point x="228" y="789" type="curve" smooth="yes"/>
      <point x="228" y="763"/>
      <point x="205" y="739"/>
    </contour>
  </outline>
</glyph>
<glyph name="pazer-hb" format="2">
  <unicode hex="05A1"/>
  <note>
uni05A1
</note>
  <anchor x="142" y="536" name="_top"/>
  <outline>
    <contour>
      <point x="50" y="657" type="line"/>
      <point x="106" y="660" type="line"/>
      <point x="106" y="717" type="line"/>
      <point x="114" y="713"/>
      <point x="125" y="711"/>
      <point x="137" y="711" type="curve" smooth="yes"/>
      <point x="202" y="711"/>
      <point x="234" y="752"/>
      <point x="234" y="818" type="curve" smooth="yes"/>
      <point x="234" y="845" type="line"/>
      <point x="177" y="842" type="line"/>
      <point x="177" y="818" type="line" smooth="yes"/>
      <point x="177" y="776"/>
      <point x="164" y="762"/>
      <point x="130" y="762" type="curve" smooth="yes"/>
      <point x="116" y="762"/>
      <point x="111" y="764"/>
      <point x="106" y="769" type="curve"/>
      <point x="106" y="845" type="line"/>
      <point x="50" y="842" type="line"/>
    </contour>
  </outline>
</glyph>
<glyph name="atnahhafukh-hb" format="2">
  <unicode hex="05A2"/>
  <note>
uni05A2
</note>
  <anchor x="156" y="0" name="_bottomleft"/>
  <outline>
    <contour>
      <point x="181" y="-286" type="line"/>
      <point x="181" y="-235" type="line"/>
      <point x="213" y="-229"/>
      <point x="234" y="-213"/>
      <point x="246" y="-188" type="curve" smooth="yes"/>
      <point x="257" y="-166"/>
      <point x="261" y="-147"/>
      <point x="261" y="-118" type="curve" smooth="yes"/>
      <point x="261" y="-101"/>
      <point x="260" y="-86"/>
      <point x="258" y="-71" type="curve"/>
      <point x="208" y="-74" type="line"/>
      <point x="211" y="-91"/>
      <point x="211" y="-105"/>
      <point x="211" y="-118" type="curve" smooth="yes"/>
      <point x="211" y="-166"/>
      <point x="192" y="-189"/>
      <point x="156" y="-189" type="curve" smooth="yes"/>
      <point x="121" y="-189"/>
      <point x="99" y="-165"/>
      <point x="99" y="-116" type="curve" smooth="yes"/>
      <point x="99" y="-101"/>
      <point x="100" y="-89"/>
      <point x="103" y="-71" type="curve"/>
      <point x="52" y="-74" type="line"/>
      <point x="51" y="-90"/>
      <point x="50" y="-106"/>
      <point x="50" y="-123" type="curve" smooth="yes"/>
      <point x="50" y="-149"/>
      <point x="52" y="-166"/>
      <point x="64" y="-189" type="curve" smooth="yes"/>
      <point x="76" y="-212"/>
      <point x="97" y="-229"/>
      <point x="129" y="-235" type="curve"/>
      <point x="129" y="-289" type="line"/>
    </contour>
  </outline>
</glyph>
<glyph name="munahleft-hb" format="2">
  <unicode hex="05A3"/>
  <note>
uni05A3
</note>
  <anchor x="208" y="0" name="_bottomleft"/>
  <outline>
    <contour>
      <point x="50" y="-228" type="line"/>
      <point x="213" y="-228" type="line"/>
      <point x="213" y="-71" type="line"/>
      <point x="160" y="-74" type="line"/>
      <point x="160" y="-176" type="line"/>
      <point x="53" y="-176" type="line"/>
    </contour>
  </outline>
</glyph>
<glyph name="mahapakhleft-hb" format="2">
  <unicode hex="05A4"/>
  <note>
uni05A4
</note>
  <anchor x="172" y="0" name="_bottomleft"/>
  <outline>
    <contour>
      <point x="154" y="-264" type="line"/>
      <point x="199" y="-237" type="line"/>
      <point x="122" y="-160" type="line"/>
      <point x="199" y="-83" type="line"/>
      <point x="154" y="-56" type="line"/>
      <point x="50" y="-160" type="line"/>
    </contour>
  </outline>
</glyph>
<glyph name="merkhaleft-hb" format="2">
  <unicode hex="05A5"/>
  <note>
uni05A5
</note>
  <anchor x="161" y="0" name="_bottomleft"/>
  <outline>
    <contour>
      <point x="53" y="-234" type="curve"/>
      <point x="50" y="-290" type="line"/>
      <point x="98" y="-279"/>
      <point x="134" y="-257"/>
      <point x="154" y="-230" type="curve" smooth="yes"/>
      <point x="176" y="-198"/>
      <point x="176" y="-142"/>
      <point x="171" y="-70" type="curve"/>
      <point x="118" y="-73" type="line"/>
      <point x="122" y="-116"/>
      <point x="124" y="-172"/>
      <point x="110" y="-198" type="curve" smooth="yes"/>
      <point x="101" y="-214"/>
      <point x="81" y="-227"/>
    </contour>
  </outline>
</glyph>
<glyph name="merkhakefulaleft-hb" format="2">
  <unicode hex="05A6"/>
  <note>
uni05A6
</note>
  <anchor x="200" y="0" name="_bottomleft"/>
  <outline>
    <contour>
      <point x="192" y="-231" type="curve"/>
      <point x="195" y="-287" type="line"/>
      <point x="243" y="-276"/>
      <point x="273" y="-254"/>
      <point x="292" y="-227" type="curve" smooth="yes"/>
      <point x="315" y="-195"/>
      <point x="315" y="-139"/>
      <point x="309" y="-66" type="curve"/>
      <point x="257" y="-69" type="line"/>
      <point x="260" y="-109"/>
      <point x="262" y="-169"/>
      <point x="248" y="-195" type="curve" smooth="yes"/>
      <point x="240" y="-211"/>
      <point x="219" y="-224"/>
    </contour>
    <contour>
      <point x="50" y="-231" type="curve"/>
      <point x="54" y="-287" type="line"/>
      <point x="102" y="-276"/>
      <point x="132" y="-254"/>
      <point x="151" y="-227" type="curve" smooth="yes"/>
      <point x="173" y="-195"/>
      <point x="173" y="-139"/>
      <point x="168" y="-66" type="curve"/>
      <point x="116" y="-69" type="line"/>
      <point x="119" y="-109"/>
      <point x="121" y="-169"/>
      <point x="107" y="-195" type="curve" smooth="yes"/>
      <point x="99" y="-211"/>
      <point x="78" y="-224"/>
    </contour>
  </outline>
</glyph>
<glyph name="dargaleft-hb" format="2">
  <unicode hex="05A7"/>
  <note>
uni05A7
</note>
  <anchor x="187" y="0" name="_bottomleft"/>
  <outline>
    <contour>
      <point x="65" y="-240" type="line"/>
      <point x="205" y="-214" type="line"/>
      <point x="121" y="-104" type="line"/>
      <point x="191" y="-91" type="line"/>
      <point x="191" y="-54" type="line"/>
      <point x="50" y="-79" type="line"/>
      <point x="134" y="-190" type="line"/>
      <point x="65" y="-200" type="line"/>
    </contour>
  </outline>
</glyph>
<glyph name="telishaqetana-hb" format="2">
  <unicode hex="05A9"/>
  <note>
uni05A9
</note>
  <anchor x="151" y="536" name="_topleft"/>
  <outline>
    <contour>
      <point x="240" y="660" type="line"/>
      <point x="278" y="699" type="line"/>
      <point x="237" y="740" type="line"/>
      <point x="245" y="754"/>
      <point x="251" y="771"/>
      <point x="251" y="789" type="curve" smooth="yes"/>
      <point x="251" y="845"/>
      <point x="206" y="889"/>
      <point x="150" y="889" type="curve" smooth="yes"/>
      <point x="94" y="889"/>
      <point x="50" y="845"/>
      <point x="50" y="789" type="curve" smooth="yes"/>
      <point x="50" y="734"/>
      <point x="93" y="690"/>
      <point x="150" y="690" type="curve" smooth="yes"/>
      <point x="168" y="690"/>
      <point x="184" y="693"/>
      <point x="199" y="701" type="curve"/>
    </contour>
    <contour>
      <point x="151" y="739" type="curve" smooth="yes"/>
      <point x="123" y="739"/>
      <point x="100" y="763"/>
      <point x="100" y="789" type="curve" smooth="yes"/>
      <point x="100" y="816"/>
      <point x="124" y="840"/>
      <point x="151" y="840" type="curve" smooth="yes"/>
      <point x="177" y="840"/>
      <point x="200" y="817"/>
      <point x="200" y="789" type="curve" smooth="yes"/>
      <point x="200" y="762"/>
      <point x="178" y="739"/>
    </contour>
  </outline>
</glyph>
<glyph name="ole-hb" format="2">
  <unicode hex="05AB"/>
  <note>
uni05AB
</note>
  <anchor x="130" y="536" name="_top"/>
  <outline>
    <contour>
      <point x="154" y="648" type="line"/>
      <point x="199" y="675" type="line"/>
      <point x="122" y="752" type="line"/>
      <point x="199" y="829" type="line"/>
      <point x="154" y="856" type="line"/>
      <point x="50" y="752" type="line"/>
    </contour>
  </outline>
</glyph>
<glyph name="iluy-hb" format="2">
  <unicode hex="05AC"/>
  <note>
uni05AC
</note>
  <anchor x="133" y="536" name="_top"/>
  <outline>
    <contour>
      <point x="50" y="660" type="line"/>
      <point x="213" y="660" type="line"/>
      <point x="213" y="817" type="line"/>
      <point x="160" y="814" type="line"/>
      <point x="160" y="712" type="line"/>
      <point x="53" y="712" type="line"/>
    </contour>
  </outline>
</glyph>
<glyph name="dehi-hb" format="2">
  <unicode hex="05AD"/>
  <note>
uni05AD
</note>
  <anchor x="82" y="0" name="_bottomleft"/>
  <outline>
    <contour>
      <point x="173" y="-234" type="line"/>
      <point x="143" y="-227"/>
      <point x="122" y="-214"/>
      <point x="114" y="-198" type="curve" smooth="yes"/>
      <point x="100" y="-172"/>
      <point x="102" y="-112"/>
      <point x="105" y="-70" type="curve"/>
      <point x="53" y="-73" type="line"/>
      <point x="48" y="-146"/>
      <point x="48" y="-198"/>
      <point x="70" y="-230" type="curve" smooth="yes"/>
      <point x="89" y="-257"/>
      <point x="122" y="-279"/>
      <point x="168" y="-290" type="curve"/>
    </contour>
  </outline>
</glyph>
<glyph name="zinor-hb" format="2">
  <unicode hex="05AE"/>
  <note>
uni05AE
</note>
  <anchor x="217" y="536" name="_top"/>
  <outline>
    <contour>
      <point x="111" y="660" type="curve"/>
      <point x="126" y="700" type="line"/>
      <point x="105" y="709"/>
      <point x="94" y="724"/>
      <point x="94" y="748" type="curve" smooth="yes"/>
      <point x="94" y="774"/>
      <point x="109" y="791"/>
      <point x="130" y="791" type="curve" smooth="yes"/>
      <point x="155" y="791"/>
      <point x="168" y="779"/>
      <point x="201" y="732" type="curve" smooth="yes"/>
      <point x="238" y="678"/>
      <point x="266" y="661"/>
      <point x="304" y="661" type="curve" smooth="yes"/>
      <point x="350" y="661"/>
      <point x="384" y="694"/>
      <point x="384" y="743" type="curve" smooth="yes"/>
      <point x="384" y="787"/>
      <point x="364" y="816"/>
      <point x="323" y="831" type="curve"/>
      <point x="308" y="791" type="line"/>
      <point x="329" y="782"/>
      <point x="340" y="768"/>
      <point x="340" y="743" type="curve" smooth="yes"/>
      <point x="340" y="716"/>
      <point x="325" y="701"/>
      <point x="304" y="701" type="curve" smooth="yes"/>
      <point x="280" y="701"/>
      <point x="263" y="717"/>
      <point x="233" y="760" type="curve" smooth="yes"/>
      <point x="195" y="815"/>
      <point x="168" y="830"/>
      <point x="132" y="830" type="curve" smooth="yes"/>
      <point x="84" y="830"/>
      <point x="50" y="797"/>
      <point x="50" y="748" type="curve" smooth="yes"/>
      <point x="50" y="704"/>
      <point x="70" y="673"/>
    </contour>
  </outline>
</glyph>
<glyph name="masoracircle-hb" format="2">
  <unicode hex="05AF"/>
  <note>
uni05AF
</note>
  <anchor x="148" y="536" name="_top"/>
  <outline>
    <contour>
      <point x="148" y="660" type="curve" smooth="yes"/>
      <point x="204" y="660"/>
      <point x="246" y="704"/>
      <point x="246" y="758" type="curve" smooth="yes"/>
      <point x="246" y="813"/>
      <point x="203" y="857"/>
      <point x="148" y="857" type="curve" smooth="yes"/>
      <point x="93" y="857"/>
      <point x="50" y="813"/>
      <point x="50" y="758" type="curve" smooth="yes"/>
      <point x="50" y="704"/>
      <point x="92" y="660"/>
    </contour>
    <contour>
      <point x="148" y="706" type="curve" smooth="yes"/>
      <point x="119" y="706"/>
      <point x="96" y="730"/>
      <point x="96" y="758" type="curve" smooth="yes"/>
      <point x="96" y="787"/>
      <point x="120" y="811"/>
      <point x="148" y="811" type="curve" smooth="yes"/>
      <point x="176" y="811"/>
      <point x="200" y="787"/>
      <point x="200" y="758" type="curve" smooth="yes"/>
      <point x="200" y="730"/>
      <point x="177" y="706"/>
    </contour>
  </outline>
</glyph>
<glyph name="sheva-hb" format="2">
  <unicode hex="05B0"/>
  <note>
sheva
</note>
  <anchor x="101" y="0" name="_bottom"/>
  <outline>
    <contour>
      <point x="50" y="-105" type="curve" smooth="yes"/>
      <point x="50" y="-133"/>
      <point x="73" y="-147"/>
      <point x="101" y="-147" type="curve" smooth="yes"/>
      <point x="129" y="-147"/>
      <point x="152" y="-133"/>
      <point x="152" y="-105" type="curve" smooth="yes"/>
      <point x="152" y="-76"/>
      <point x="129" y="-63"/>
      <point x="101" y="-63" type="curve" smooth="yes"/>
      <point x="73" y="-63"/>
      <point x="50" y="-76"/>
    </contour>
    <contour>
      <point x="50" y="-210" type="curve" smooth="yes"/>
      <point x="50" y="-238"/>
      <point x="73" y="-252"/>
      <point x="101" y="-252" type="curve" smooth="yes"/>
      <point x="129" y="-252"/>
      <point x="152" y="-238"/>
      <point x="152" y="-210" type="curve" smooth="yes"/>
      <point x="152" y="-181"/>
      <point x="129" y="-168"/>
      <point x="101" y="-168" type="curve" smooth="yes"/>
      <point x="73" y="-168"/>
      <point x="50" y="-181"/>
    </contour>
  </outline>
</glyph>
<glyph name="hatafsegol-hb" format="2">
  <unicode hex="05B1"/>
  <note>
hatafsegol
</note>
  <anchor x="231" y="0" name="_bottom"/>
  <outline>
    <contour>
      <point x="361" y="-252" type="curve" smooth="yes"/>
      <point x="389" y="-252"/>
      <point x="412" y="-238"/>
      <point x="412" y="-210" type="curve" smooth="yes"/>
      <point x="412" y="-181"/>
      <point x="389" y="-168"/>
      <point x="361" y="-168" type="curve" smooth="yes"/>
      <point x="333" y="-168"/>
      <point x="310" y="-181"/>
      <point x="310" y="-210" type="curve" smooth="yes"/>
      <point x="310" y="-238"/>
      <point x="333" y="-252"/>
    </contour>
    <contour>
      <point x="165" y="-252" type="curve" smooth="yes"/>
      <point x="191" y="-252"/>
      <point x="216" y="-238"/>
      <point x="216" y="-210" type="curve" smooth="yes"/>
      <point x="216" y="-181"/>
      <point x="191" y="-168"/>
      <point x="165" y="-168" type="curve" smooth="yes"/>
      <point x="136" y="-168"/>
      <point x="114" y="-181"/>
      <point x="114" y="-210" type="curve"/>
      <point x="114" y="-238"/>
      <point x="136" y="-252"/>
    </contour>
    <contour>
      <point x="101" y="-147" type="curve" smooth="yes"/>
      <point x="129" y="-147"/>
      <point x="152" y="-133"/>
      <point x="152" y="-105" type="curve" smooth="yes"/>
      <point x="152" y="-76"/>
      <point x="129" y="-63"/>
      <point x="101" y="-63" type="curve" smooth="yes"/>
      <point x="73" y="-63"/>
      <point x="50" y="-76"/>
      <point x="50" y="-105" type="curve" smooth="yes"/>
      <point x="50" y="-133"/>
      <point x="73" y="-147"/>
    </contour>
    <contour>
      <point x="229" y="-147" type="curve" smooth="yes"/>
      <point x="255" y="-147"/>
      <point x="280" y="-133"/>
      <point x="280" y="-105" type="curve" smooth="yes"/>
      <point x="280" y="-76"/>
      <point x="255" y="-63"/>
      <point x="229" y="-63" type="curve" smooth="yes"/>
      <point x="200" y="-63"/>
      <point x="178" y="-76"/>
      <point x="178" y="-105" type="curve" smooth="yes"/>
      <point x="178" y="-133"/>
      <point x="200" y="-147"/>
    </contour>
    <contour>
      <point x="361" y="-147" type="curve" smooth="yes"/>
      <point x="389" y="-147"/>
      <point x="412" y="-133"/>
      <point x="412" y="-105" type="curve" smooth="yes"/>
      <point x="412" y="-76"/>
      <point x="389" y="-63"/>
      <point x="361" y="-63" type="curve" smooth="yes"/>
      <point x="333" y="-63"/>
      <point x="310" y="-76"/>
      <point x="310" y="-105" type="curve" smooth="yes"/>
      <point x="310" y="-133"/>
      <point x="333" y="-147"/>
    </contour>
  </outline>
</glyph>
<glyph name="hatafpatah-hb" format="2">
  <unicode hex="05B2"/>
  <note>
hatafpatah
</note>
  <anchor x="213" y="0" name="_bottom"/>
  <outline>
    <contour>
      <point x="50" y="-141" type="line"/>
      <point x="239" y="-141" type="line"/>
      <point x="242" y="-69" type="line"/>
      <point x="53" y="-69" type="line"/>
    </contour>
    <contour>
      <point x="322" y="-252" type="curve" smooth="yes"/>
      <point x="350" y="-252"/>
      <point x="373" y="-238"/>
      <point x="373" y="-210" type="curve" smooth="yes"/>
      <point x="373" y="-181"/>
      <point x="350" y="-168"/>
      <point x="322" y="-168" type="curve" smooth="yes"/>
      <point x="294" y="-168"/>
      <point x="271" y="-181"/>
      <point x="271" y="-210" type="curve" smooth="yes"/>
      <point x="271" y="-238"/>
      <point x="294" y="-252"/>
    </contour>
    <contour>
      <point x="322" y="-147" type="curve" smooth="yes"/>
      <point x="350" y="-147"/>
      <point x="373" y="-133"/>
      <point x="373" y="-105" type="curve" smooth="yes"/>
      <point x="373" y="-76"/>
      <point x="350" y="-63"/>
      <point x="322" y="-63" type="curve" smooth="yes"/>
      <point x="294" y="-63"/>
      <point x="271" y="-76"/>
      <point x="271" y="-105" type="curve" smooth="yes"/>
      <point x="271" y="-133"/>
      <point x="294" y="-147"/>
    </contour>
  </outline>
</glyph>
<glyph name="hatafqamats-hb" format="2">
  <unicode hex="05B3"/>
  <note>
hatafqamats
</note>
  <anchor x="213" y="0" name="_bottom"/>
  <outline>
    <contour>
      <point x="110" y="-235" type="line"/>
      <point x="181" y="-232" type="line"/>
      <point x="174" y="-141" type="line"/>
      <point x="239" y="-141" type="line"/>
      <point x="242" y="-69" type="line"/>
      <point x="53" y="-69" type="line"/>
      <point x="50" y="-141" type="line"/>
      <point x="117" y="-141" type="line"/>
    </contour>
    <contour>
      <point x="322" y="-252" type="curve" smooth="yes"/>
      <point x="350" y="-252"/>
      <point x="373" y="-238"/>
      <point x="373" y="-210" type="curve" smooth="yes"/>
      <point x="373" y="-181"/>
      <point x="350" y="-168"/>
      <point x="322" y="-168" type="curve" smooth="yes"/>
      <point x="294" y="-168"/>
      <point x="271" y="-181"/>
      <point x="271" y="-210" type="curve" smooth="yes"/>
      <point x="271" y="-238"/>
      <point x="294" y="-252"/>
    </contour>
    <contour>
      <point x="322" y="-147" type="curve" smooth="yes"/>
      <point x="350" y="-147"/>
      <point x="373" y="-133"/>
      <point x="373" y="-105" type="curve" smooth="yes"/>
      <point x="373" y="-76"/>
      <point x="350" y="-63"/>
      <point x="322" y="-63" type="curve" smooth="yes"/>
      <point x="294" y="-63"/>
      <point x="271" y="-76"/>
      <point x="271" y="-105" type="curve" smooth="yes"/>
      <point x="271" y="-133"/>
      <point x="294" y="-147"/>
    </contour>
  </outline>
</glyph>
<glyph name="tsere-hb" format="2">
  <unicode hex="05B5"/>
  <note>
tsere
</note>
  <anchor x="165" y="0" name="_bottom"/>
  <outline>
    <contour>
      <point x="229" y="-147" type="curve" smooth="yes"/>
      <point x="255" y="-147"/>
      <point x="280" y="-133"/>
      <point x="280" y="-105" type="curve" smooth="yes"/>
      <point x="280" y="-76"/>
      <point x="255" y="-63"/>
      <point x="229" y="-63" type="curve" smooth="yes"/>
      <point x="200" y="-63"/>
      <point x="178" y="-76"/>
      <point x="178" y="-105" type="curve" smooth="yes"/>
      <point x="178" y="-133"/>
      <point x="200" y="-147"/>
    </contour>
    <contour>
      <point x="101" y="-147" type="curve" smooth="yes"/>
      <point x="129" y="-147"/>
      <point x="152" y="-133"/>
      <point x="152" y="-105" type="curve" smooth="yes"/>
      <point x="152" y="-76"/>
      <point x="129" y="-63"/>
      <point x="101" y="-63" type="curve" smooth="yes"/>
      <point x="73" y="-63"/>
      <point x="50" y="-76"/>
      <point x="50" y="-105" type="curve" smooth="yes"/>
      <point x="50" y="-133"/>
      <point x="73" y="-147"/>
    </contour>
  </outline>
</glyph>
<glyph name="segol-hb" format="2">
  <unicode hex="05B6"/>
  <note>
segol
</note>
  <anchor x="165" y="0" name="_bottom"/>
  <outline>
    <contour>
      <point x="229" y="-147" type="curve" smooth="yes"/>
      <point x="255" y="-147"/>
      <point x="280" y="-133"/>
      <point x="280" y="-105" type="curve" smooth="yes"/>
      <point x="280" y="-76"/>
      <point x="255" y="-63"/>
      <point x="229" y="-63" type="curve" smooth="yes"/>
      <point x="200" y="-63"/>
      <point x="178" y="-76"/>
      <point x="178" y="-105" type="curve"/>
      <point x="178" y="-133"/>
      <point x="200" y="-147"/>
    </contour>
    <contour>
      <point x="165" y="-252" type="curve" smooth="yes"/>
      <point x="193" y="-252"/>
      <point x="216" y="-238"/>
      <point x="216" y="-210" type="curve" smooth="yes"/>
      <point x="216" y="-181"/>
      <point x="193" y="-168"/>
      <point x="165" y="-168" type="curve" smooth="yes"/>
      <point x="137" y="-168"/>
      <point x="114" y="-181"/>
      <point x="114" y="-210" type="curve" smooth="yes"/>
      <point x="114" y="-238"/>
      <point x="137" y="-252"/>
    </contour>
    <contour>
      <point x="101" y="-147" type="curve" smooth="yes"/>
      <point x="127" y="-147"/>
      <point x="152" y="-133"/>
      <point x="152" y="-105" type="curve" smooth="yes"/>
      <point x="152" y="-76"/>
      <point x="127" y="-63"/>
      <point x="101" y="-63" type="curve" smooth="yes"/>
      <point x="72" y="-63"/>
      <point x="50" y="-76"/>
      <point x="50" y="-105" type="curve" smooth="yes"/>
      <point x="50" y="-133"/>
      <point x="72" y="-147"/>
    </contour>
  </outline>
</glyph>
<glyph name="patah-hb" format="2">
  <unicode hex="05B7"/>
  <note>
patah
</note>
  <anchor x="146" y="0" name="_bottom"/>
  <outline>
    <contour>
      <point x="50" y="-141" type="line"/>
      <point x="239" y="-141" type="line"/>
      <point x="242" y="-69" type="line"/>
      <point x="53" y="-69" type="line"/>
    </contour>
  </outline>
</glyph>
<glyph name="qamats-hb" format="2">
  <unicode hex="05B8"/>
  <note>
qamats
</note>
  <anchor x="145" y="0" name="_bottom"/>
  <outline>
    <contour>
      <point x="110" y="-235" type="line"/>
      <point x="181" y="-232" type="line"/>
      <point x="174" y="-141" type="line"/>
      <point x="239" y="-141" type="line"/>
      <point x="242" y="-69" type="line"/>
      <point x="53" y="-69" type="line"/>
      <point x="50" y="-141" type="line"/>
      <point x="117" y="-141" type="line"/>
    </contour>
  </outline>
</glyph>
<glyph name="holam-hb" format="2">
  <unicode hex="05B9"/>
  <note>
holam
</note>
  <anchor x="101" y="536" name="_topleft"/>
  <outline>
    <contour>
      <point x="101" y="673" type="curve" smooth="yes"/>
      <point x="129" y="673"/>
      <point x="152" y="687"/>
      <point x="152" y="715" type="curve" smooth="yes"/>
      <point x="152" y="744"/>
      <point x="129" y="757"/>
      <point x="101" y="757" type="curve" smooth="yes"/>
      <point x="73" y="757"/>
      <point x="50" y="744"/>
      <point x="50" y="715" type="curve" smooth="yes"/>
      <point x="50" y="687"/>
      <point x="73" y="673"/>
    </contour>
  </outline>
</glyph>
<glyph name="qubuts-hb" format="2">
  <unicode hex="05BB"/>
  <note>
qubuts
</note>
  <anchor x="208" y="0" name="_bottom"/>
  <outline>
    <contour>
      <point x="315" y="-252" type="curve" smooth="yes"/>
      <point x="341" y="-252"/>
      <point x="366" y="-238"/>
      <point x="366" y="-210" type="curve" smooth="yes"/>
      <point x="366" y="-181"/>
      <point x="341" y="-168"/>
      <point x="315" y="-168" type="curve" smooth="yes"/>
      <point x="286" y="-168"/>
      <point x="264" y="-181"/>
      <point x="264" y="-210" type="curve"/>
      <point x="264" y="-238"/>
      <point x="286" y="-252"/>
    </contour>
    <contour>
      <point x="101" y="-147" type="curve" smooth="yes"/>
      <point x="129" y="-147"/>
      <point x="152" y="-133"/>
      <point x="152" y="-105" type="curve" smooth="yes"/>
      <point x="152" y="-76"/>
      <point x="129" y="-63"/>
      <point x="101" y="-63" type="curve" smooth="yes"/>
      <point x="73" y="-63"/>
      <point x="50" y="-76"/>
      <point x="50" y="-105" type="curve" smooth="yes"/>
      <point x="50" y="-133"/>
      <point x="73" y="-147"/>
    </contour>
    <contour>
      <point x="208" y="-199" type="curve" smooth="yes"/>
      <point x="234" y="-199"/>
      <point x="259" y="-185"/>
      <point x="259" y="-157" type="curve" smooth="yes"/>
      <point x="259" y="-128"/>
      <point x="234" y="-115"/>
      <point x="208" y="-115" type="curve" smooth="yes"/>
      <point x="179" y="-115"/>
      <point x="157" y="-128"/>
      <point x="157" y="-157" type="curve" smooth="yes"/>
      <point x="157" y="-185"/>
      <point x="179" y="-199"/>
    </contour>
  </outline>
</glyph>
<glyph name="dagesh-hb" format="2">
  <unicode hex="05BC"/>
  <note>
dagesh
</note>
  <anchor x="101" y="306" name="_center"/>
  <outline>
    <contour>
      <point x="50" y="306" type="curve"/>
      <point x="50" y="278"/>
      <point x="73" y="264"/>
      <point x="101" y="264" type="curve" smooth="yes"/>
      <point x="129" y="264"/>
      <point x="152" y="278"/>
      <point x="152" y="306" type="curve" smooth="yes"/>
      <point x="152" y="335"/>
      <point x="129" y="348"/>
      <point x="101" y="348" type="curve" smooth="yes"/>
      <point x="73" y="348"/>
      <point x="50" y="335"/>
    </contour>
  </outline>
</glyph>
<glyph name="siluqleft-hb" format="2">
  <unicode hex="05BD"/>
  <note>
meteg
</note>
  <anchor x="86" y="0" name="_bottomleft"/>
  <outline>
    <contour>
      <point x="50" y="-252" type="line"/>
      <point x="121" y="-249" type="line"/>
      <point x="121" y="-69" type="line"/>
      <point x="50" y="-72" type="line"/>
    </contour>
  </outline>
</glyph>
<glyph name="maqaf-hb" format="2">
  <advance width="310"/>
  <unicode hex="05BE"/>
  <outline>
    <contour>
      <point x="25" y="393" type="line"/>
      <point x="285" y="393" type="line"/>
      <point x="285" y="592" type="line"/>
      <point x="25" y="592" type="line"/>
    </contour>
  </outline>
</glyph>
<glyph name="rafe-hb" format="2">
  <unicode hex="05BF"/>
  <note>
rafe
</note>
  <anchor x="181" y="536" name="_top"/>
  <outline>
    <contour>
      <point x="50" y="679" type="line"/>
      <point x="309" y="679" type="line"/>
      <point x="312" y="751" type="line"/>
      <point x="53" y="751" type="line"/>
    </contour>
  </outline>
</glyph>
<glyph name="paseq-hb" format="2">
  <advance width="559"/>
  <unicode hex="05C0"/>
  <note>
paseq
</note>
  <outline>
    <contour>
      <point x="239" y="673" type="line"/>
      <point x="239" y="-81" type="line"/>
      <point x="320" y="-81" type="line"/>
      <point x="320" y="673" type="line"/>
    </contour>
  </outline>
</glyph>
<glyph name="upperdot-hb" format="2">
  <unicode hex="05C4"/>
  <note>
upper_dot
</note>
  <anchor x="101" y="536" name="_top"/>
  <outline>
    <contour>
      <point x="101" y="673" type="curve" smooth="yes"/>
      <point x="129" y="673"/>
      <point x="152" y="687"/>
      <point x="152" y="715" type="curve" smooth="yes"/>
      <point x="152" y="744"/>
      <point x="129" y="757"/>
      <point x="101" y="757" type="curve" smooth="yes"/>
      <point x="73" y="757"/>
      <point x="50" y="744"/>
      <point x="50" y="715" type="curve" smooth="yes"/>
      <point x="50" y="687"/>
      <point x="73" y="673"/>
    </contour>
  </outline>
</glyph>
<glyph name="lowerdot-hb" format="2">
  <unicode hex="05C5"/>
  <note>
lowerdot
</note>
  <anchor x="101" y="0" name="_bottom"/>
  <outline>
    <contour>
      <point x="101" y="-147" type="curve" smooth="yes"/>
      <point x="129" y="-147"/>
      <point x="152" y="-133"/>
      <point x="152" y="-105" type="curve" smooth="yes"/>
      <point x="152" y="-76"/>
      <point x="129" y="-63"/>
      <point x="101" y="-63" type="curve" smooth="yes"/>
      <point x="73" y="-63"/>
      <point x="50" y="-76"/>
      <point x="50" y="-105" type="curve" smooth="yes"/>
      <point x="50" y="-133"/>
      <point x="73" y="-147"/>
    </contour>
  </outline>
</glyph>
<glyph name="nunhafukha-hb" format="2">
  <advance width="388"/>
  <unicode hex="05C6"/>
  <note>
uni05C6
</note>
  <outline>
    <contour>
      <point x="166" y="0" type="curve" smooth="yes"/>
      <point x="378" y="0" type="line"/>
      <point x="328" y="199" type="line"/>
      <point x="138" y="199" type="line" smooth="yes"/>
      <point x="119" y="199"/>
      <point x="113" y="203"/>
      <point x="113" y="232" type="curve" smooth="yes"/>
      <point x="113" y="350" type="line" smooth="yes"/>
      <point x="113" y="382"/>
      <point x="119" y="393"/>
      <point x="151" y="393" type="curve" smooth="yes"/>
      <point x="216" y="393" type="line" smooth="yes"/>
      <point x="279" y="393"/>
      <point x="305" y="421"/>
      <point x="305" y="495" type="curve" smooth="yes"/>
      <point x="305" y="545"/>
      <point x="299" y="576"/>
      <point x="281" y="647" type="curve"/>
      <point x="240" y="647" type="line"/>
      <point x="240" y="625" type="line" smooth="yes"/>
      <point x="240" y="604"/>
      <point x="227" y="592"/>
      <point x="196" y="592" type="curve" smooth="yes"/>
      <point x="157" y="592" type="line" smooth="yes"/>
      <point x="62" y="592"/>
      <point x="47" y="536"/>
      <point x="47" y="431" type="curve" smooth="yes"/>
      <point x="47" y="184" type="line" smooth="yes"/>
      <point x="47" y="66"/>
      <point x="70" y="0"/>
    </contour>
  </outline>
</glyph>
<glyph name="qamatsqatan-hb" format="2">
  <unicode hex="05C7"/>
  <note>
qamatsqatan
</note>
  <anchor x="146" y="0" name="_bottom"/>
  <outline>
    <contour>
      <point x="110" y="-235" type="line"/>
      <point x="181" y="-232" type="line"/>
      <point x="174" y="-156" type="line"/>
      <point x="239" y="-156" type="line"/>
      <point x="242" y="-69" type="line"/>
      <point x="53" y="-69" type="line"/>
      <point x="50" y="-156" type="line"/>
      <point x="117" y="-156" type="line"/>
    </contour>
  </outline>
</glyph>
<glyph name="alef-hb" format="2">
  <advance width="614"/>
  <unicode hex="05D0"/>
  <anchor x="339" y="0" name="bottom"/>
  <anchor x="38" y="0" name="bottomleft"/>
  <anchor x="313" y="108" name="center"/>
  <anchor x="253" y="536" name="top"/>
  <anchor x="-17" y="536" name="topleft"/>
  <outline>
    <contour>
      <point x="516" y="-10" type="curve"/>
      <point x="548" y="-10" type="line"/>
      <point x="570" y="34"/>
      <point x="580" y="68"/>
      <point x="580" y="106" type="curve" smooth="yes"/>
      <point x="580" y="157"/>
      <point x="562" y="204"/>
      <point x="529" y="231" type="curve" smooth="yes"/>
      <point x="151" y="540" type="line" smooth="yes"/>
      <point x="121" y="565"/>
      <point x="109" y="596"/>
      <point x="109" y="622" type="curve" smooth="yes"/>
      <point x="109" y="647" type="line"/>
      <point x="69" y="647" type="line"/>
      <point x="48" y="591"/>
      <point x="39" y="548"/>
      <point x="39" y="515" type="curve" smooth="yes"/>
      <point x="39" y="457"/>
      <point x="67" y="411"/>
      <point x="104" y="381" type="curve" smooth="yes"/>
      <point x="460" y="89" type="line" smooth="yes"/>
      <point x="509" y="49"/>
      <point x="516" y="16"/>
    </contour>
    <contour>
      <point x="32" y="0" type="line"/>
      <point x="204" y="0" type="line"/>
      <point x="230" y="78"/>
      <point x="216" y="128"/>
      <point x="189" y="170" type="curve" smooth="yes"/>
      <point x="162" y="212" type="line" smooth="yes"/>
      <point x="129" y="263"/>
      <point x="130" y="289"/>
      <point x="159" y="330" type="curve" smooth="yes"/>
      <point x="182" y="363" type="line"/>
      <point x="146" y="400" type="line"/>
      <point x="102" y="353" type="line" smooth="yes"/>
      <point x="61" y="309"/>
      <point x="41" y="243"/>
      <point x="56" y="187" type="curve" smooth="yes"/>
      <point x="73" y="123" type="line" smooth="yes"/>
      <point x="78" y="104"/>
      <point x="71" y="97"/>
      <point x="54" y="97" type="curve" smooth="yes"/>
      <point x="32" y="97" type="line"/>
    </contour>
    <contour>
      <point x="485" y="260" type="line"/>
      <point x="485" y="306"/>
      <point x="489" y="340"/>
      <point x="516" y="378" type="curve" smooth="yes"/>
      <point x="559" y="439" type="line"/>
      <point x="507" y="459" type="line"/>
      <point x="473" y="410" type="line" smooth="yes"/>
      <point x="451" y="378"/>
      <point x="427" y="328"/>
      <point x="427" y="309" type="curve"/>
    </contour>
    <contour>
      <point x="574" y="381" type="line"/>
      <point x="584" y="419"/>
      <point x="592" y="453"/>
      <point x="592" y="490" type="curve" smooth="yes"/>
      <point x="592" y="549"/>
      <point x="571" y="581"/>
      <point x="520" y="587" type="curve" smooth="yes"/>
      <point x="485" y="591" type="line" smooth="yes"/>
      <point x="460" y="594"/>
      <point x="447" y="605"/>
      <point x="447" y="622" type="curve" smooth="yes"/>
      <point x="447" y="647" type="line"/>
      <point x="407" y="647" type="line"/>
      <point x="389" y="591"/>
      <point x="382" y="538"/>
      <point x="382" y="495" type="curve" smooth="yes"/>
      <point x="382" y="431"/>
      <point x="397" y="400"/>
      <point x="451" y="394" type="curve" smooth="yes"/>
    </contour>
  </outline>
</glyph>
<glyph name="bet-hb" format="2">
  <advance width="566"/>
  <unicode hex="05D1"/>
  <anchor x="304" y="0" name="bottom"/>
  <anchor x="10" y="0" name="bottomleft"/>
  <anchor x="245" y="297" name="center"/>
  <anchor x="259" y="536" name="top"/>
  <anchor x="-3" y="536" name="topleft"/>
  <outline>
    <contour>
      <point x="17" y="0" type="line"/>
      <point x="539" y="0" type="line"/>
      <point x="539" y="199" type="line"/>
      <point x="482" y="199" type="line"/>
      <point x="485" y="224"/>
      <point x="487" y="261"/>
      <point x="487" y="287" type="curve" smooth="yes"/>
      <point x="487" y="431" type="line" smooth="yes"/>
      <point x="487" y="532"/>
      <point x="441" y="592"/>
      <point x="361" y="592" type="curve" smooth="yes"/>
      <point x="156" y="592" type="line" smooth="yes"/>
      <point x="125" y="592"/>
      <point x="112" y="604"/>
      <point x="112" y="625" type="curve" smooth="yes"/>
      <point x="112" y="647" type="line"/>
      <point x="71" y="647" type="line"/>
      <point x="53" y="576"/>
      <point x="47" y="545"/>
      <point x="47" y="495" type="curve" smooth="yes"/>
      <point x="47" y="421"/>
      <point x="73" y="393"/>
      <point x="136" y="393" type="curve" smooth="yes"/>
      <point x="350" y="393" type="line" smooth="yes"/>
      <point x="403" y="393"/>
      <point x="418" y="382"/>
      <point x="418" y="346" type="curve" smooth="yes"/>
      <point x="418" y="274" type="line" smooth="yes"/>
      <point x="418" y="233"/>
      <point x="416" y="213"/>
      <point x="413" y="199" type="curve"/>
      <point x="68" y="199" type="line"/>
    </contour>
  </outline>
</glyph>
<glyph name="gimel-hb" format="2">
  <advance width="414"/>
  <unicode hex="05D2"/>
  <anchor x="295" y="0" name="bottom"/>
  <anchor x="5" y="0" name="bottomleft"/>
  <anchor x="161" y="297" name="center"/>
  <anchor x="236" y="536" name="top"/>
  <anchor x="25" y="536" name="topleft"/>
  <outline>
    <contour>
      <point x="348" y="-9" type="curve"/>
      <point x="357" y="-9" type="line"/>
      <point x="369" y="4"/>
      <point x="387" y="28"/>
      <point x="404" y="61" type="curve"/>
      <point x="362" y="159" type="line" smooth="yes"/>
      <point x="334" y="224"/>
      <point x="330" y="241"/>
      <point x="330" y="270" type="curve" smooth="yes"/>
      <point x="330" y="502" type="line" smooth="yes"/>
      <point x="330" y="571"/>
      <point x="312" y="592"/>
      <point x="258" y="592" type="curve" smooth="yes"/>
      <point x="195" y="592" type="line" smooth="yes"/>
      <point x="164" y="592"/>
      <point x="151" y="604"/>
      <point x="151" y="625" type="curve" smooth="yes"/>
      <point x="151" y="647" type="line"/>
      <point x="110" y="647" type="line"/>
      <point x="92" y="576"/>
      <point x="86" y="545"/>
      <point x="86" y="495" type="curve" smooth="yes"/>
      <point x="86" y="421"/>
      <point x="112" y="393"/>
      <point x="175" y="393" type="curve" smooth="yes"/>
      <point x="227" y="393" type="line" smooth="yes"/>
      <point x="261" y="393"/>
      <point x="264" y="388"/>
      <point x="264" y="355" type="curve" smooth="yes"/>
      <point x="264" y="217" type="line" smooth="yes"/>
      <point x="264" y="204"/>
      <point x="258" y="199"/>
      <point x="228" y="199" type="curve" smooth="yes"/>
      <point x="57" y="199" type="line"/>
      <point x="7" y="0" type="line"/>
      <point x="208" y="0" type="line" smooth="yes"/>
      <point x="235" y="0"/>
      <point x="248" y="16"/>
      <point x="269" y="70" type="curve" smooth="yes"/>
      <point x="288" y="119" type="line"/>
      <point x="310" y="79"/>
      <point x="328" y="40"/>
    </contour>
  </outline>
</glyph>
<glyph name="dalet-hb" format="2">
  <advance width="513"/>
  <unicode hex="05D3"/>
  <anchor x="390" y="0" name="bottom"/>
  <anchor x="103" y="0" name="bottomleft"/>
  <anchor x="190" y="297" name="center"/>
  <anchor x="279" y="536" name="top"/>
  <anchor x="-2" y="536" name="topleft"/>
  <outline>
    <contour>
      <point x="349" y="-7" type="line"/>
      <point x="370" y="-7" type="line"/>
      <point x="398" y="2"/>
      <point x="408" y="9"/>
      <point x="430" y="31" type="curve"/>
      <point x="418" y="393" type="line"/>
      <point x="481" y="393" type="line"/>
      <point x="481" y="548" type="line" smooth="yes"/>
      <point x="481" y="579"/>
      <point x="469" y="592"/>
      <point x="441" y="592" type="curve" smooth="yes"/>
      <point x="116" y="592" type="line" smooth="yes"/>
      <point x="85" y="592"/>
      <point x="72" y="604"/>
      <point x="72" y="625" type="curve" smooth="yes"/>
      <point x="72" y="647" type="line"/>
      <point x="31" y="647" type="line"/>
      <point x="13" y="576"/>
      <point x="7" y="545"/>
      <point x="7" y="495" type="curve" smooth="yes"/>
      <point x="7" y="421"/>
      <point x="33" y="393"/>
      <point x="96" y="393" type="curve" smooth="yes"/>
      <point x="363" y="393" type="line"/>
      <point x="363" y="391" type="line"/>
      <point x="357" y="369"/>
      <point x="349" y="344"/>
      <point x="349" y="245" type="curve" smooth="yes"/>
    </contour>
  </outline>
</glyph>
<glyph name="he-hb" format="2">
  <advance width="619"/>
  <unicode hex="05D4"/>
  <anchor x="305" y="0" name="bottom"/>
  <anchor x="15" y="0" name="bottomleft"/>
  <anchor x="305" y="297" name="center"/>
  <anchor x="337" y="536" name="top"/>
  <anchor x="0" y="536" name="topleft"/>
  <outline>
    <contour>
      <point x="468" y="-7" type="line"/>
      <point x="489" y="-7" type="line"/>
      <point x="517" y="2"/>
      <point x="527" y="9"/>
      <point x="549" y="31" type="curve"/>
      <point x="537" y="398" type="line"/>
      <point x="562" y="407" type="line"/>
      <point x="562" y="548" type="line" smooth="yes"/>
      <point x="562" y="579"/>
      <point x="550" y="592"/>
      <point x="522" y="592" type="curve" smooth="yes"/>
      <point x="151" y="592" type="line" smooth="yes"/>
      <point x="120" y="592"/>
      <point x="107" y="604"/>
      <point x="107" y="625" type="curve" smooth="yes"/>
      <point x="107" y="647" type="line"/>
      <point x="66" y="647" type="line"/>
      <point x="48" y="576"/>
      <point x="42" y="545"/>
      <point x="42" y="495" type="curve" smooth="yes"/>
      <point x="42" y="421"/>
      <point x="68" y="393"/>
      <point x="131" y="393" type="curve" smooth="yes"/>
      <point x="482" y="393" type="line"/>
      <point x="482" y="391" type="line"/>
      <point x="476" y="369"/>
      <point x="468" y="344"/>
      <point x="468" y="245" type="curve" smooth="yes"/>
    </contour>
    <contour>
      <point x="60" y="-7" type="line"/>
      <point x="81" y="-7" type="line"/>
      <point x="107" y="4"/>
      <point x="120" y="11"/>
      <point x="141" y="30" type="curve"/>
      <point x="140" y="310" type="line"/>
      <point x="127" y="328" type="line"/>
      <point x="103" y="315" type="line" smooth="yes"/>
      <point x="78" y="301"/>
      <point x="60" y="265"/>
      <point x="60" y="206" type="curve" smooth="yes"/>
    </contour>
  </outline>
</glyph>
<glyph name="vav-hb" format="2">
  <advance width="307"/>
  <unicode hex="05D5"/>
  <anchor x="220" y="0" name="bottom"/>
  <anchor x="-62" y="0" name="bottomleft"/>
  <anchor x="96" y="297" name="center"/>
  <anchor x="163" y="536" name="top"/>
  <anchor x="-6" y="536" name="topleft"/>
  <outline>
    <contour>
      <point x="179" y="-7" type="line"/>
      <point x="200" y="-7" type="line"/>
      <point x="220" y="-2"/>
      <point x="236" y="6"/>
      <point x="260" y="30" type="curve"/>
      <point x="245" y="502" type="line" smooth="yes"/>
      <point x="243" y="572"/>
      <point x="226" y="592"/>
      <point x="174" y="592" type="curve" smooth="yes"/>
      <point x="131" y="592" type="line" smooth="yes"/>
      <point x="100" y="592"/>
      <point x="87" y="604"/>
      <point x="87" y="625" type="curve" smooth="yes"/>
      <point x="87" y="647" type="line"/>
      <point x="46" y="647" type="line"/>
      <point x="28" y="576"/>
      <point x="22" y="545"/>
      <point x="22" y="495" type="curve" smooth="yes"/>
      <point x="22" y="421"/>
      <point x="48" y="393"/>
      <point x="111" y="393" type="curve" smooth="yes"/>
      <point x="141" y="393" type="line" smooth="yes"/>
      <point x="176" y="393"/>
      <point x="179" y="388"/>
      <point x="179" y="355" type="curve" smooth="yes"/>
    </contour>
  </outline>
</glyph>
<glyph name="zayin-hb" format="2">
  <advance width="294"/>
  <unicode hex="05D6"/>
  <anchor x="197" y="0" name="bottom"/>
  <anchor x="-80" y="0" name="bottomleft"/>
  <anchor x="32" y="297" name="center"/>
  <anchor x="189" y="536" name="top"/>
  <anchor x="-4" y="536" name="topleft"/>
  <outline>
    <contour>
      <point x="141" y="-6" type="curve"/>
      <point x="162" y="-6" type="line"/>
      <point x="186" y="2"/>
      <point x="200" y="13"/>
      <point x="222" y="30" type="curve"/>
      <point x="201" y="85"/>
      <point x="177" y="182"/>
      <point x="177" y="264" type="curve" smooth="yes"/>
      <point x="177" y="310"/>
      <point x="183" y="369"/>
      <point x="196" y="418" type="curve"/>
      <point x="148" y="403" type="line" smooth="yes"/>
      <point x="103" y="389"/>
      <point x="109" y="308"/>
      <point x="109" y="256" type="curve" smooth="yes"/>
      <point x="109" y="202"/>
      <point x="119" y="71"/>
    </contour>
    <contour>
      <point x="254" y="379" type="line"/>
      <point x="264" y="417"/>
      <point x="272" y="453"/>
      <point x="272" y="490" type="curve" smooth="yes"/>
      <point x="272" y="549"/>
      <point x="251" y="580"/>
      <point x="200" y="585" type="curve" smooth="yes"/>
      <point x="135" y="592" type="line" smooth="yes"/>
      <point x="110" y="595"/>
      <point x="97" y="605"/>
      <point x="97" y="622" type="curve" smooth="yes"/>
      <point x="97" y="647" type="line"/>
      <point x="57" y="647" type="line"/>
      <point x="39" y="591"/>
      <point x="32" y="538"/>
      <point x="32" y="495" type="curve" smooth="yes"/>
      <point x="32" y="431"/>
      <point x="47" y="401"/>
      <point x="101" y="395" type="curve" smooth="yes"/>
    </contour>
  </outline>
</glyph>
<glyph name="het-hb" format="2">
  <advance width="654"/>
  <unicode hex="05D7"/>
  <anchor x="346" y="0" name="bottom"/>
  <anchor x="64" y="0" name="bottomleft"/>
  <anchor x="346" y="250" name="center"/>
  <anchor x="362" y="536" name="top"/>
  <anchor x="-1" y="536" name="topleft"/>
  <outline>
    <contour>
      <point x="503" y="-7" type="line"/>
      <point x="524" y="-7" type="line"/>
      <point x="552" y="2"/>
      <point x="562" y="9"/>
      <point x="584" y="31" type="curve"/>
      <point x="572" y="398" type="line"/>
      <point x="597" y="407" type="line"/>
      <point x="597" y="548" type="line" smooth="yes"/>
      <point x="597" y="579"/>
      <point x="585" y="592"/>
      <point x="557" y="592" type="curve" smooth="yes"/>
      <point x="166" y="592" type="line" smooth="yes"/>
      <point x="135" y="592"/>
      <point x="122" y="604"/>
      <point x="122" y="625" type="curve" smooth="yes"/>
      <point x="122" y="647" type="line"/>
      <point x="81" y="647" type="line"/>
      <point x="63" y="576"/>
      <point x="57" y="545"/>
      <point x="57" y="495" type="curve" smooth="yes"/>
      <point x="57" y="420"/>
      <point x="83" y="393"/>
      <point x="146" y="393" type="curve" smooth="yes"/>
      <point x="517" y="393" type="line"/>
      <point x="517" y="391" type="line"/>
      <point x="511" y="369"/>
      <point x="503" y="344"/>
      <point x="503" y="245" type="curve" smooth="yes"/>
    </contour>
    <contour>
      <point x="107" y="-7" type="line"/>
      <point x="128" y="-7" type="line"/>
      <point x="156" y="2"/>
      <point x="166" y="9"/>
      <point x="188" y="31" type="curve"/>
      <point x="176" y="422" type="line"/>
      <point x="121" y="422" type="line"/>
      <point x="121" y="393" type="line"/>
      <point x="115" y="371"/>
      <point x="107" y="344"/>
      <point x="107" y="245" type="curve" smooth="yes"/>
    </contour>
  </outline>
</glyph>
<glyph name="tet-hb" format="2">
  <advance width="635"/>
  <unicode hex="05D8"/>
  <anchor x="323" y="0" name="bottom"/>
  <anchor x="35" y="0" name="bottomleft"/>
  <anchor x="343" y="269" name="center"/>
  <anchor x="364" y="536" name="top"/>
  <anchor x="-4" y="536" name="topleft"/>
  <outline>
    <contour>
      <point x="120" y="0" type="curve"/>
      <point x="410" y="0" type="line" smooth="yes"/>
      <point x="483" y="0"/>
      <point x="493" y="13"/>
      <point x="525" y="81" type="curve" smooth="yes"/>
      <point x="578" y="194"/>
      <point x="598" y="271"/>
      <point x="598" y="369" type="curve" smooth="yes"/>
      <point x="598" y="534"/>
      <point x="541" y="604"/>
      <point x="460" y="604" type="curve" smooth="yes"/>
      <point x="362" y="604"/>
      <point x="302" y="511"/>
      <point x="295" y="335" type="curve"/>
      <point x="331" y="335" type="line"/>
      <point x="339" y="400"/>
      <point x="381" y="427"/>
      <point x="443" y="427" type="curve" smooth="yes"/>
      <point x="498" y="427"/>
      <point x="532" y="393"/>
      <point x="532" y="315" type="curve" smooth="yes"/>
      <point x="532" y="286"/>
      <point x="528" y="264"/>
      <point x="518" y="247" type="curve" smooth="yes"/>
      <point x="499" y="213"/>
      <point x="459" y="199"/>
      <point x="392" y="199" type="curve" smooth="yes"/>
      <point x="166" y="199" type="line"/>
      <point x="155" y="238"/>
      <point x="153" y="265"/>
      <point x="153" y="290" type="curve" smooth="yes"/>
      <point x="153" y="330"/>
      <point x="158" y="377"/>
      <point x="169" y="418" type="curve"/>
      <point x="117" y="428" type="line"/>
      <point x="101" y="383"/>
      <point x="87" y="327"/>
      <point x="87" y="273" type="curve" smooth="yes"/>
      <point x="87" y="230"/>
      <point x="94" y="113"/>
    </contour>
    <contour>
      <point x="224" y="381" type="line"/>
      <point x="234" y="419"/>
      <point x="242" y="453"/>
      <point x="242" y="490" type="curve" smooth="yes"/>
      <point x="242" y="549"/>
      <point x="221" y="581"/>
      <point x="170" y="587" type="curve" smooth="yes"/>
      <point x="135" y="591" type="line" smooth="yes"/>
      <point x="110" y="594"/>
      <point x="97" y="605"/>
      <point x="97" y="622" type="curve" smooth="yes"/>
      <point x="97" y="647" type="line"/>
      <point x="57" y="647" type="line"/>
      <point x="39" y="591"/>
      <point x="32" y="538"/>
      <point x="32" y="495" type="curve" smooth="yes"/>
      <point x="32" y="431"/>
      <point x="47" y="400"/>
      <point x="101" y="394" type="curve" smooth="yes"/>
    </contour>
  </outline>
</glyph>
<glyph name="yod-hb" format="2">
  <advance width="343"/>
  <unicode hex="05D9"/>
  <anchor x="194" y="0" name="bottom"/>
  <anchor x="-86" y="0" name="bottomleft"/>
  <anchor x="100" y="327" name="center"/>
  <anchor x="180" y="536" name="top"/>
  <anchor x="-19" y="536" name="topleft"/>
  <outline>
    <contour>
      <point x="174" y="188" type="line"/>
      <point x="230" y="240" type="line" smooth="yes"/>
      <point x="305" y="309"/>
      <point x="311" y="397"/>
      <point x="311" y="457" type="curve" smooth="yes"/>
      <point x="311" y="545"/>
      <point x="283" y="592"/>
      <point x="228" y="592" type="curve" smooth="yes"/>
      <point x="131" y="592" type="line" smooth="yes"/>
      <point x="100" y="592"/>
      <point x="87" y="604"/>
      <point x="87" y="625" type="curve" smooth="yes"/>
      <point x="87" y="647" type="line"/>
      <point x="46" y="647" type="line"/>
      <point x="28" y="576"/>
      <point x="22" y="545"/>
      <point x="22" y="495" type="curve" smooth="yes"/>
      <point x="22" y="421"/>
      <point x="48" y="393"/>
      <point x="111" y="393" type="curve" smooth="yes"/>
      <point x="171" y="393" type="line" smooth="yes"/>
      <point x="203" y="393"/>
      <point x="218" y="387"/>
      <point x="218" y="366" type="curve" smooth="yes"/>
      <point x="218" y="345"/>
      <point x="210" y="321"/>
      <point x="179" y="292" type="curve" smooth="yes"/>
      <point x="128" y="244" type="line"/>
    </contour>
  </outline>
</glyph>
<glyph name="finalkaf-hb" format="2">
  <advance width="520"/>
  <unicode hex="05DA"/>
  <anchor x="185" y="406" name="bottom"/>
  <anchor x="65" y="0" name="bottomleft"/>
  <anchor x="185" y="297" name="center"/>
  <anchor x="270" y="536" name="top"/>
  <anchor x="-15" y="536" name="topleft"/>
  <outline>
    <contour>
      <point x="372" y="-240" type="line"/>
      <point x="393" y="-240" type="line"/>
      <point x="415" y="-232"/>
      <point x="428" y="-222"/>
      <point x="450" y="-199" type="curve"/>
      <point x="439" y="289" type="line" smooth="yes"/>
      <point x="437" y="357"/>
      <point x="438" y="384"/>
      <point x="463" y="427" type="curve"/>
      <point x="463" y="548" type="line" smooth="yes"/>
      <point x="463" y="580"/>
      <point x="451" y="592"/>
      <point x="424" y="592" type="curve" smooth="yes"/>
      <point x="116" y="592" type="line" smooth="yes"/>
      <point x="85" y="592"/>
      <point x="72" y="604"/>
      <point x="72" y="625" type="curve" smooth="yes"/>
      <point x="72" y="647" type="line"/>
      <point x="31" y="647" type="line"/>
      <point x="13" y="576"/>
      <point x="7" y="545"/>
      <point x="7" y="495" type="curve" smooth="yes"/>
      <point x="7" y="421"/>
      <point x="33" y="393"/>
      <point x="96" y="393" type="curve" smooth="yes"/>
      <point x="388" y="393" type="line"/>
      <point x="388" y="391" type="line"/>
      <point x="376" y="351"/>
      <point x="372" y="318"/>
      <point x="372" y="254" type="curve" smooth="yes"/>
    </contour>
  </outline>
</glyph>
<glyph name="kaf-hb" format="2">
  <advance width="566"/>
  <unicode hex="05DB"/>
  <anchor x="278" y="0" name="bottom"/>
  <anchor x="0" y="0" name="bottomleft"/>
  <anchor x="264" y="297" name="center"/>
  <anchor x="261" y="536" name="top"/>
  <anchor x="0" y="536" name="topleft"/>
  <outline>
    <contour>
      <point x="27" y="0" type="line"/>
      <point x="371" y="0" type="line" smooth="yes"/>
      <point x="467" y="0"/>
      <point x="519" y="73"/>
      <point x="519" y="204" type="curve" smooth="yes"/>
      <point x="519" y="411" type="line" smooth="yes"/>
      <point x="519" y="529"/>
      <point x="466" y="592"/>
      <point x="363" y="592" type="curve" smooth="yes"/>
      <point x="159" y="592" type="line" smooth="yes"/>
      <point x="128" y="592"/>
      <point x="115" y="604"/>
      <point x="115" y="625" type="curve" smooth="yes"/>
      <point x="115" y="647" type="line"/>
      <point x="74" y="647" type="line"/>
      <point x="56" y="576"/>
      <point x="50" y="545"/>
      <point x="50" y="495" type="curve" smooth="yes"/>
      <point x="50" y="421"/>
      <point x="76" y="393"/>
      <point x="139" y="393" type="curve" smooth="yes"/>
      <point x="355" y="393" type="line" smooth="yes"/>
      <point x="432" y="393"/>
      <point x="453" y="378"/>
      <point x="453" y="326" type="curve" smooth="yes"/>
      <point x="453" y="262" type="line" smooth="yes"/>
      <point x="453" y="216"/>
      <point x="429" y="199"/>
      <point x="354" y="199" type="curve" smooth="yes"/>
      <point x="77" y="199" type="line"/>
    </contour>
  </outline>
</glyph>
<glyph name="lamed-hb" format="2">
  <advance width="519"/>
  <unicode hex="05DC"/>
  <anchor x="236" y="0" name="bottom"/>
  <anchor x="-47" y="0" name="bottomleft"/>
  <anchor x="244" y="300" name="center"/>
  <anchor x="320" y="536" name="top"/>
  <anchor x="-63" y="536" name="topleft"/>
  <outline>
    <contour>
      <point x="236" y="-7" type="curve" smooth="yes"/>
      <point x="261" y="-7"/>
      <point x="276" y="5"/>
      <point x="276" y="42" type="curve" smooth="yes"/>
      <point x="276" y="82" type="line" smooth="yes"/>
      <point x="276" y="107"/>
      <point x="278" y="116"/>
      <point x="304" y="134" type="curve" smooth="yes"/>
      <point x="447" y="233" type="line" smooth="yes"/>
      <point x="474" y="251"/>
      <point x="482" y="275"/>
      <point x="482" y="314" type="curve" smooth="yes"/>
      <point x="482" y="473" type="line" smooth="yes"/>
      <point x="482" y="559"/>
      <point x="442" y="592"/>
      <point x="379" y="592" type="curve" smooth="yes"/>
      <point x="141" y="592" type="line" smooth="yes"/>
      <point x="124" y="592"/>
      <point x="121" y="601"/>
      <point x="124" y="611" type="curve" smooth="yes"/>
      <point x="152" y="718" type="line" smooth="yes"/>
      <point x="164" y="762"/>
      <point x="151" y="798"/>
      <point x="123" y="802" type="curve" smooth="yes"/>
      <point x="91" y="807" type="line" smooth="yes"/>
      <point x="65" y="811"/>
      <point x="62" y="818"/>
      <point x="62" y="835" type="curve" smooth="yes"/>
      <point x="62" y="848" type="line"/>
      <point x="42" y="848" type="line"/>
      <point x="30" y="828"/>
      <point x="7" y="785"/>
      <point x="7" y="740" type="curve" smooth="yes"/>
      <point x="7" y="698"/>
      <point x="16" y="680"/>
      <point x="39" y="675" type="curve" smooth="yes"/>
      <point x="61" y="670" type="line" smooth="yes"/>
      <point x="67" y="669"/>
      <point x="68" y="664"/>
      <point x="65" y="652" type="curve" smooth="yes"/>
      <point x="63" y="644"/>
      <point x="30" y="524"/>
      <point x="30" y="479" type="curve" smooth="yes"/>
      <point x="30" y="427"/>
      <point x="58" y="393"/>
      <point x="105" y="393" type="curve" smooth="yes"/>
      <point x="383" y="393" type="line" smooth="yes"/>
      <point x="402" y="393"/>
      <point x="413" y="384"/>
      <point x="413" y="364" type="curve" smooth="yes"/>
      <point x="413" y="309" type="line" smooth="yes"/>
      <point x="413" y="296"/>
      <point x="409" y="290"/>
      <point x="392" y="278" type="curve" smooth="yes"/>
      <point x="239" y="173" type="line" smooth="yes"/>
      <point x="204" y="149"/>
      <point x="196" y="117"/>
      <point x="196" y="73" type="curve" smooth="yes"/>
      <point x="196" y="42" type="line" smooth="yes"/>
      <point x="196" y="6"/>
      <point x="210" y="-7"/>
    </contour>
  </outline>
</glyph>
<glyph name="mem-hb" format="2">
  <advance width="635"/>
  <unicode hex="05DE"/>
  <anchor x="338" y="0" name="bottom"/>
  <anchor x="52" y="0" name="bottomleft"/>
  <anchor x="341" y="297" name="center"/>
  <anchor x="334" y="536" name="top"/>
  <anchor x="-5" y="536" name="topleft"/>
  <outline>
    <contour>
      <point x="45" y="0" type="line"/>
      <point x="115" y="0" type="line"/>
      <point x="144" y="190" type="line" smooth="yes"/>
      <point x="166" y="334"/>
      <point x="245" y="432"/>
      <point x="383" y="432" type="curve" smooth="yes"/>
      <point x="467" y="432"/>
      <point x="532" y="396"/>
      <point x="532" y="280" type="curve" smooth="yes"/>
      <point x="532" y="255"/>
      <point x="529" y="227"/>
      <point x="519" y="213" type="curve" smooth="yes"/>
      <point x="512" y="203"/>
      <point x="501" y="199"/>
      <point x="485" y="199" type="curve" smooth="yes"/>
      <point x="277" y="199" type="line"/>
      <point x="247" y="0" type="line"/>
      <point x="561" y="0" type="line"/>
      <point x="588" y="148"/>
      <point x="598" y="227"/>
      <point x="598" y="299" type="curve" smooth="yes"/>
      <point x="598" y="509"/>
      <point x="513" y="598"/>
      <point x="337" y="598" type="curve" smooth="yes"/>
      <point x="311" y="598" type="line"/>
      <point x="215" y="493" type="line"/>
      <point x="213" y="494" type="line"/>
      <point x="213" y="505" type="line" smooth="yes"/>
      <point x="213" y="571"/>
      <point x="198" y="592"/>
      <point x="153" y="592" type="curve" smooth="yes"/>
      <point x="136" y="592" type="line" smooth="yes"/>
      <point x="105" y="592"/>
      <point x="92" y="604"/>
      <point x="92" y="625" type="curve" smooth="yes"/>
      <point x="92" y="647" type="line"/>
      <point x="51" y="647" type="line"/>
      <point x="33" y="576"/>
      <point x="27" y="543"/>
      <point x="27" y="502" type="curve" smooth="yes"/>
      <point x="27" y="421"/>
      <point x="51" y="393"/>
      <point x="116" y="393" type="curve" smooth="yes"/>
      <point x="136" y="393" type="line" smooth="yes"/>
      <point x="143" y="393"/>
      <point x="147" y="392"/>
      <point x="147" y="388" type="curve" smooth="yes"/>
      <point x="147" y="386"/>
      <point x="146" y="383"/>
      <point x="143" y="378" type="curve" smooth="yes"/>
      <point x="134" y="363"/>
      <point x="88" y="295"/>
      <point x="71" y="178" type="curve" smooth="yes"/>
    </contour>
  </outline>
</glyph>
<glyph name="finalnun-hb" format="2">
  <advance width="300"/>
  <unicode hex="05DF"/>
  <anchor x="0" y="0" name="bottomleft"/>
  <anchor x="80" y="260" name="center"/>
  <anchor x="155" y="536" name="top"/>
  <anchor x="-5" y="536" name="topleft"/>
  <outline>
    <contour>
      <point x="152" y="-240" type="line"/>
      <point x="173" y="-240" type="line"/>
      <point x="195" y="-232"/>
      <point x="208" y="-222"/>
      <point x="230" y="-199" type="curve"/>
      <point x="219" y="289" type="line" smooth="yes"/>
      <point x="217" y="360"/>
      <point x="218" y="384"/>
      <point x="243" y="427" type="curve"/>
      <point x="243" y="548" type="line" smooth="yes"/>
      <point x="243" y="580"/>
      <point x="231" y="592"/>
      <point x="204" y="592" type="curve" smooth="yes"/>
      <point x="116" y="592" type="line" smooth="yes"/>
      <point x="85" y="592"/>
      <point x="72" y="604"/>
      <point x="72" y="625" type="curve" smooth="yes"/>
      <point x="72" y="647" type="line"/>
      <point x="31" y="647" type="line"/>
      <point x="13" y="576"/>
      <point x="7" y="543"/>
      <point x="7" y="502" type="curve" smooth="yes"/>
      <point x="7" y="421"/>
      <point x="31" y="393"/>
      <point x="96" y="393" type="curve" smooth="yes"/>
      <point x="168" y="393" type="line"/>
      <point x="168" y="391" type="line"/>
      <point x="156" y="351"/>
      <point x="152" y="318"/>
      <point x="152" y="254" type="curve" smooth="yes"/>
    </contour>
  </outline>
</glyph>
<glyph name="nun-hb" format="2">
  <advance width="388"/>
  <unicode hex="05E0"/>
  <anchor x="168" y="0" name="bottom"/>
  <anchor x="-87" y="0" name="bottomleft"/>
  <anchor x="168" y="297" name="center"/>
  <anchor x="219" y="536" name="top"/>
  <anchor x="-4" y="536" name="topleft"/>
  <outline>
    <contour>
      <point x="10" y="0" type="line"/>
      <point x="222" y="0" type="line" smooth="yes"/>
      <point x="318" y="0"/>
      <point x="341" y="66"/>
      <point x="341" y="184" type="curve" smooth="yes"/>
      <point x="341" y="431" type="line" smooth="yes"/>
      <point x="341" y="536"/>
      <point x="326" y="592"/>
      <point x="231" y="592" type="curve" smooth="yes"/>
      <point x="192" y="592" type="line" smooth="yes"/>
      <point x="161" y="592"/>
      <point x="148" y="604"/>
      <point x="148" y="625" type="curve" smooth="yes"/>
      <point x="148" y="647" type="line"/>
      <point x="107" y="647" type="line"/>
      <point x="89" y="576"/>
      <point x="83" y="545"/>
      <point x="83" y="495" type="curve" smooth="yes"/>
      <point x="83" y="421"/>
      <point x="109" y="393"/>
      <point x="172" y="393" type="curve" smooth="yes"/>
      <point x="237" y="393" type="line" smooth="yes"/>
      <point x="269" y="393"/>
      <point x="275" y="382"/>
      <point x="275" y="350" type="curve" smooth="yes"/>
      <point x="275" y="232" type="line" smooth="yes"/>
      <point x="275" y="203"/>
      <point x="269" y="199"/>
      <point x="250" y="199" type="curve" smooth="yes"/>
      <point x="60" y="199" type="line"/>
    </contour>
  </outline>
</glyph>
<glyph name="samekh-hb" format="2">
  <advance width="595"/>
  <unicode hex="05E1"/>
  <anchor x="294" y="0" name="bottom"/>
  <anchor x="21" y="0" name="bottomleft"/>
  <anchor x="311" y="297" name="center"/>
  <anchor x="324" y="536" name="top"/>
  <anchor x="-1" y="536" name="topleft"/>
  <outline>
    <contour>
      <point x="296" y="-9" type="curve" smooth="yes"/>
      <point x="530" y="-9"/>
      <point x="558" y="173"/>
      <point x="558" y="322" type="curve" smooth="yes"/>
      <point x="558" y="378"/>
      <point x="554" y="426"/>
      <point x="541" y="474" type="curve" smooth="yes"/>
      <point x="512" y="583"/>
      <point x="465" y="592"/>
      <point x="391" y="592" type="curve" smooth="yes"/>
      <point x="146" y="592" type="line" smooth="yes"/>
      <point x="115" y="592"/>
      <point x="102" y="604"/>
      <point x="102" y="625" type="curve" smooth="yes"/>
      <point x="102" y="647" type="line"/>
      <point x="61" y="647" type="line"/>
      <point x="43" y="576"/>
      <point x="37" y="543"/>
      <point x="37" y="502" type="curve" smooth="yes"/>
      <point x="37" y="421"/>
      <point x="61" y="393"/>
      <point x="126" y="393" type="curve" smooth="yes"/>
      <point x="369" y="393" type="line" smooth="yes"/>
      <point x="461" y="393"/>
      <point x="489" y="378"/>
      <point x="489" y="305" type="curve" smooth="yes"/>
      <point x="489" y="204"/>
      <point x="435" y="165"/>
      <point x="314" y="165" type="curve" smooth="yes"/>
      <point x="189" y="165"/>
      <point x="132" y="207"/>
      <point x="132" y="282" type="curve" smooth="yes"/>
      <point x="132" y="315"/>
      <point x="143" y="351"/>
      <point x="155" y="393" type="curve"/>
      <point x="155" y="436" type="line"/>
      <point x="100" y="436" type="line"/>
      <point x="100" y="392" type="line"/>
      <point x="87" y="358"/>
      <point x="63" y="294"/>
      <point x="63" y="214" type="curve" smooth="yes"/>
      <point x="63" y="64"/>
      <point x="147" y="-9"/>
    </contour>
  </outline>
</glyph>
<glyph name="ayin-hb" format="2">
  <advance width="549"/>
  <unicode hex="05E2"/>
  <anchor x="249" y="0" name="bottom"/>
  <anchor x="-31" y="0" name="bottomleft"/>
  <anchor x="285" y="304" name="center"/>
  <anchor x="272" y="536" name="top"/>
  <anchor x="-27" y="536" name="topleft"/>
  <outline>
    <contour>
      <point x="13" y="-83" type="line"/>
      <point x="31" y="-83" type="line"/>
      <point x="201" y="6" type="line" smooth="yes"/>
      <point x="359" y="89"/>
      <point x="496" y="240"/>
      <point x="517" y="422" type="curve" smooth="yes"/>
      <point x="525" y="491" type="line" smooth="yes"/>
      <point x="532" y="550"/>
      <point x="507" y="581"/>
      <point x="456" y="587" type="curve" smooth="yes"/>
      <point x="421" y="591" type="line" smooth="yes"/>
      <point x="396" y="594"/>
      <point x="383" y="605"/>
      <point x="383" y="622" type="curve" smooth="yes"/>
      <point x="383" y="647" type="line"/>
      <point x="343" y="647" type="line"/>
      <point x="325" y="591"/>
      <point x="318" y="538"/>
      <point x="318" y="495" type="curve" smooth="yes"/>
      <point x="318" y="431"/>
      <point x="333" y="400"/>
      <point x="387" y="394" type="curve" smooth="yes"/>
      <point x="436" y="389" type="line"/>
      <point x="434" y="382" type="line" smooth="yes"/>
      <point x="402" y="271"/>
      <point x="311" y="220"/>
      <point x="178" y="174" type="curve" smooth="yes"/>
      <point x="13" y="117" type="line"/>
    </contour>
    <contour>
      <point x="179" y="120" type="line"/>
      <point x="266" y="161" type="line"/>
      <point x="172" y="311" type="line" smooth="yes"/>
      <point x="151" y="345"/>
      <point x="143" y="363"/>
      <point x="151" y="421" type="curve"/>
      <point x="97" y="428" type="line"/>
      <point x="78" y="367"/>
      <point x="93" y="279"/>
      <point x="120" y="229" type="curve" smooth="yes"/>
    </contour>
    <contour>
      <point x="204" y="381" type="line"/>
      <point x="214" y="419"/>
      <point x="222" y="453"/>
      <point x="222" y="490" type="curve" smooth="yes"/>
      <point x="222" y="549"/>
      <point x="201" y="581"/>
      <point x="150" y="587" type="curve" smooth="yes"/>
      <point x="115" y="591" type="line" smooth="yes"/>
      <point x="90" y="594"/>
      <point x="77" y="605"/>
      <point x="77" y="622" type="curve" smooth="yes"/>
      <point x="77" y="647" type="line"/>
      <point x="37" y="647" type="line"/>
      <point x="19" y="591"/>
      <point x="12" y="538"/>
      <point x="12" y="495" type="curve" smooth="yes"/>
      <point x="12" y="431"/>
      <point x="27" y="400"/>
      <point x="81" y="394" type="curve" smooth="yes"/>
    </contour>
  </outline>
</glyph>
<glyph name="finalpe-hb" format="2">
  <advance width="558"/>
  <unicode hex="05E3"/>
  <anchor x="9" y="0" name="bottomleft"/>
  <anchor x="336" y="270" name="center"/>
  <anchor x="219" y="536" name="top"/>
  <anchor x="-11" y="536" name="topleft"/>
  <outline>
    <contour>
      <point x="433" y="-240" type="line"/>
      <point x="454" y="-240" type="line"/>
      <point x="476" y="-233"/>
      <point x="487" y="-224"/>
      <point x="511" y="-199" type="curve"/>
      <point x="500" y="411" type="line" smooth="yes"/>
      <point x="498" y="529"/>
      <point x="446" y="592"/>
      <point x="343" y="592" type="curve" smooth="yes"/>
      <point x="119" y="592" type="line" smooth="yes"/>
      <point x="88" y="592"/>
      <point x="75" y="604"/>
      <point x="75" y="625" type="curve" smooth="yes"/>
      <point x="75" y="647" type="line"/>
      <point x="34" y="647" type="line"/>
      <point x="16" y="576"/>
      <point x="10" y="543"/>
      <point x="10" y="502" type="curve" smooth="yes"/>
      <point x="10" y="421"/>
      <point x="34" y="393"/>
      <point x="99" y="393" type="curve" smooth="yes"/>
      <point x="335" y="393" type="line" smooth="yes"/>
      <point x="412" y="393"/>
      <point x="433" y="378"/>
      <point x="433" y="326" type="curve" smooth="yes"/>
    </contour>
    <contour>
      <point x="212" y="196" type="curve"/>
      <point x="218" y="203"/>
      <point x="238" y="221"/>
      <point x="238" y="254" type="curve" smooth="yes"/>
      <point x="238" y="301"/>
      <point x="199" y="313"/>
      <point x="175" y="313" type="curve" smooth="yes"/>
      <point x="157" y="313"/>
      <point x="130" y="306"/>
      <point x="114" y="292" type="curve"/>
      <point x="114" y="296" type="line" smooth="yes"/>
      <point x="114" y="333"/>
      <point x="133" y="372"/>
      <point x="148" y="393" type="curve"/>
      <point x="148" y="416" type="line"/>
      <point x="92" y="416" type="line"/>
      <point x="92" y="391" type="line"/>
      <point x="73" y="372"/>
      <point x="37" y="293"/>
      <point x="37" y="216" type="curve" smooth="yes"/>
      <point x="37" y="202" type="line"/>
      <point x="67" y="202" type="line"/>
      <point x="88" y="216"/>
      <point x="112" y="225"/>
      <point x="139" y="225" type="curve" smooth="yes"/>
      <point x="169" y="225"/>
      <point x="194" y="214"/>
    </contour>
  </outline>
</glyph>
<glyph name="pe-hb" format="2">
  <advance width="591"/>
  <unicode hex="05E4"/>
  <anchor x="294" y="0" name="bottom"/>
  <anchor x="9" y="0" name="bottomleft"/>
  <anchor x="381" y="297" name="center"/>
  <anchor x="273" y="536" name="top"/>
  <anchor x="-10" y="536" name="topleft"/>
  <outline>
    <contour>
      <point x="32" y="0" type="line"/>
      <point x="396" y="0" type="line" smooth="yes"/>
      <point x="492" y="0"/>
      <point x="544" y="73"/>
      <point x="544" y="204" type="curve" smooth="yes"/>
      <point x="544" y="411" type="line" smooth="yes"/>
      <point x="544" y="529"/>
      <point x="491" y="592"/>
      <point x="388" y="592" type="curve" smooth="yes"/>
      <point x="164" y="592" type="line" smooth="yes"/>
      <point x="133" y="592"/>
      <point x="120" y="604"/>
      <point x="120" y="625" type="curve" smooth="yes"/>
      <point x="120" y="647" type="line"/>
      <point x="79" y="647" type="line"/>
      <point x="61" y="576"/>
      <point x="55" y="543"/>
      <point x="55" y="502" type="curve" smooth="yes"/>
      <point x="55" y="421"/>
      <point x="79" y="393"/>
      <point x="144" y="393" type="curve" smooth="yes"/>
      <point x="380" y="393" type="line" smooth="yes"/>
      <point x="457" y="393"/>
      <point x="478" y="378"/>
      <point x="478" y="326" type="curve" smooth="yes"/>
      <point x="478" y="262" type="line" smooth="yes"/>
      <point x="478" y="216"/>
      <point x="454" y="199"/>
      <point x="379" y="199" type="curve" smooth="yes"/>
      <point x="82" y="199" type="line"/>
    </contour>
    <contour>
      <point x="257" y="236" type="curve"/>
      <point x="263" y="243"/>
      <point x="283" y="261"/>
      <point x="283" y="294" type="curve" smooth="yes"/>
      <point x="283" y="341"/>
      <point x="244" y="353"/>
      <point x="220" y="353" type="curve" smooth="yes"/>
      <point x="202" y="353"/>
      <point x="175" y="346"/>
      <point x="159" y="332" type="curve"/>
      <point x="159" y="333" type="line" smooth="yes"/>
      <point x="159" y="343"/>
      <point x="178" y="372"/>
      <point x="193" y="393" type="curve"/>
      <point x="193" y="416" type="line"/>
      <point x="137" y="416" type="line"/>
      <point x="137" y="391" type="line"/>
      <point x="118" y="372"/>
      <point x="82" y="333"/>
      <point x="82" y="256" type="curve" smooth="yes"/>
      <point x="82" y="242" type="line"/>
      <point x="112" y="242" type="line"/>
      <point x="133" y="256"/>
      <point x="157" y="265"/>
      <point x="184" y="265" type="curve" smooth="yes"/>
      <point x="214" y="265"/>
      <point x="239" y="254"/>
    </contour>
  </outline>
</glyph>
<glyph name="finaltsadi-hb" format="2">
  <advance width="522"/>
  <unicode hex="05E5"/>
  <anchor x="-18" y="0" name="bottomleft"/>
  <anchor x="227" y="319" name="center"/>
  <anchor x="274" y="536" name="top"/>
  <anchor x="2" y="536" name="topleft"/>
  <outline>
    <contour>
      <point x="102" y="-240" type="line"/>
      <point x="123" y="-240" type="line"/>
      <point x="145" y="-232"/>
      <point x="158" y="-222"/>
      <point x="180" y="-199" type="curve"/>
      <point x="175" y="-34" type="line" smooth="yes"/>
      <point x="173" y="25"/>
      <point x="194" y="116"/>
      <point x="288" y="211" type="curve" smooth="yes"/>
      <point x="488" y="413" type="line"/>
      <point x="424" y="438" type="line"/>
      <point x="347" y="361" type="line" smooth="yes"/>
      <point x="298" y="312"/>
      <point x="195" y="217"/>
      <point x="171" y="180" type="curve"/>
      <point x="169" y="256" type="line" smooth="yes"/>
      <point x="167" y="330"/>
      <point x="171" y="368"/>
      <point x="183" y="406" type="curve"/>
      <point x="118" y="406" type="line"/>
      <point x="118" y="390" type="line"/>
      <point x="106" y="350"/>
      <point x="102" y="317"/>
      <point x="102" y="253" type="curve" smooth="yes"/>
    </contour>
    <contour>
      <point x="224" y="381" type="line"/>
      <point x="234" y="419"/>
      <point x="242" y="453"/>
      <point x="242" y="490" type="curve" smooth="yes"/>
      <point x="242" y="549"/>
      <point x="221" y="581"/>
      <point x="170" y="587" type="curve" smooth="yes"/>
      <point x="135" y="591" type="line" smooth="yes"/>
      <point x="110" y="594"/>
      <point x="97" y="605"/>
      <point x="97" y="622" type="curve" smooth="yes"/>
      <point x="97" y="647" type="line"/>
      <point x="57" y="647" type="line"/>
      <point x="39" y="591"/>
      <point x="32" y="538"/>
      <point x="32" y="495" type="curve" smooth="yes"/>
      <point x="32" y="431"/>
      <point x="47" y="400"/>
      <point x="101" y="394" type="curve" smooth="yes"/>
    </contour>
    <contour>
      <point x="502" y="381" type="line"/>
      <point x="512" y="419"/>
      <point x="520" y="453"/>
      <point x="520" y="490" type="curve" smooth="yes"/>
      <point x="520" y="549"/>
      <point x="499" y="581"/>
      <point x="448" y="587" type="curve" smooth="yes"/>
      <point x="413" y="591" type="line" smooth="yes"/>
      <point x="388" y="594"/>
      <point x="375" y="605"/>
      <point x="375" y="622" type="curve" smooth="yes"/>
      <point x="375" y="647" type="line"/>
      <point x="335" y="647" type="line"/>
      <point x="317" y="591"/>
      <point x="310" y="538"/>
      <point x="310" y="495" type="curve" smooth="yes"/>
      <point x="310" y="431"/>
      <point x="325" y="400"/>
      <point x="379" y="394" type="curve" smooth="yes"/>
    </contour>
  </outline>
</glyph>
<glyph name="tsadi-hb" format="2">
  <advance width="548"/>
  <unicode hex="05E6"/>
  <anchor x="231" y="0" name="bottom"/>
  <anchor x="-53" y="0" name="bottomleft"/>
  <anchor x="107" y="277" name="center"/>
  <anchor x="273" y="536" name="top"/>
  <anchor x="-15" y="536" name="topleft"/>
  <outline>
    <contour>
      <point x="12" y="0" type="line"/>
      <point x="449" y="0" type="line"/>
      <point x="486" y="96"/>
      <point x="494" y="120"/>
      <point x="494" y="157" type="curve" smooth="yes"/>
      <point x="494" y="173"/>
      <point x="494" y="233"/>
      <point x="437" y="265" type="curve" smooth="yes"/>
      <point x="288" y="348" type="line" smooth="yes"/>
      <point x="236" y="377"/>
      <point x="232" y="389"/>
      <point x="232" y="422" type="curve" smooth="yes"/>
      <point x="232" y="502" type="line" smooth="yes"/>
      <point x="232" y="571"/>
      <point x="214" y="592"/>
      <point x="160" y="592" type="curve" smooth="yes"/>
      <point x="145" y="592" type="line"/>
      <point x="114" y="592"/>
      <point x="101" y="604"/>
      <point x="101" y="625" type="curve" smooth="yes"/>
      <point x="101" y="647" type="line"/>
      <point x="60" y="647" type="line"/>
      <point x="42" y="576"/>
      <point x="36" y="543"/>
      <point x="36" y="502" type="curve" smooth="yes"/>
      <point x="36" y="421"/>
      <point x="60" y="393"/>
      <point x="125" y="393" type="curve" smooth="yes"/>
      <point x="156" y="393" type="line" smooth="yes"/>
      <point x="164" y="393"/>
      <point x="167" y="389"/>
      <point x="167" y="381" type="curve" smooth="yes"/>
      <point x="167" y="348" type="line" smooth="yes"/>
      <point x="167" y="310"/>
      <point x="178" y="298"/>
      <point x="208" y="282" type="curve" smooth="yes"/>
      <point x="323" y="220" type="line" smooth="yes"/>
      <point x="330" y="216"/>
      <point x="331" y="211"/>
      <point x="331" y="209" type="curve" smooth="yes"/>
      <point x="331" y="206"/>
      <point x="330" y="202"/>
      <point x="328" y="201" type="curve" smooth="yes"/>
      <point x="326" y="200"/>
      <point x="323" y="199"/>
      <point x="319" y="199" type="curve" smooth="yes"/>
      <point x="47" y="199" type="line"/>
    </contour>
    <contour>
      <point x="420" y="257" type="line"/>
      <point x="420" y="303"/>
      <point x="424" y="337"/>
      <point x="451" y="375" type="curve" smooth="yes"/>
      <point x="494" y="436" type="line"/>
      <point x="442" y="456" type="line"/>
      <point x="408" y="407" type="line" smooth="yes"/>
      <point x="386" y="375"/>
      <point x="362" y="325"/>
      <point x="362" y="306" type="curve"/>
    </contour>
    <contour>
      <point x="518" y="381" type="line"/>
      <point x="528" y="419"/>
      <point x="536" y="453"/>
      <point x="536" y="490" type="curve" smooth="yes"/>
      <point x="536" y="549"/>
      <point x="515" y="581"/>
      <point x="464" y="587" type="curve" smooth="yes"/>
      <point x="429" y="591" type="line" smooth="yes"/>
      <point x="404" y="594"/>
      <point x="391" y="605"/>
      <point x="391" y="622" type="curve" smooth="yes"/>
      <point x="391" y="647" type="line"/>
      <point x="351" y="647" type="line"/>
      <point x="333" y="591"/>
      <point x="326" y="538"/>
      <point x="326" y="495" type="curve" smooth="yes"/>
      <point x="326" y="431"/>
      <point x="341" y="400"/>
      <point x="395" y="394" type="curve" smooth="yes"/>
    </contour>
  </outline>
</glyph>
<glyph name="qof-hb" format="2">
  <advance width="577"/>
  <unicode hex="05E7"/>
  <anchor x="335" y="0" name="bottom"/>
  <anchor x="-49" y="0" name="bottomleft"/>
  <anchor x="294" y="297" name="center"/>
  <anchor x="302" y="536" name="top"/>
  <anchor x="-2" y="536" name="topleft"/>
  <outline>
    <contour>
      <point x="299" y="-7" type="curve" smooth="yes"/>
      <point x="324" y="-7"/>
      <point x="339" y="5"/>
      <point x="339" y="42" type="curve" smooth="yes"/>
      <point x="339" y="82" type="line" smooth="yes"/>
      <point x="339" y="107"/>
      <point x="341" y="120"/>
      <point x="367" y="134" type="curve" smooth="yes"/>
      <point x="505" y="209" type="line" smooth="yes"/>
      <point x="532" y="224"/>
      <point x="540" y="251"/>
      <point x="540" y="290" type="curve" smooth="yes"/>
      <point x="540" y="473" type="line" smooth="yes"/>
      <point x="540" y="559"/>
      <point x="500" y="592"/>
      <point x="437" y="592" type="curve" smooth="yes"/>
      <point x="166" y="592" type="line" smooth="yes"/>
      <point x="135" y="592"/>
      <point x="122" y="604"/>
      <point x="122" y="625" type="curve" smooth="yes"/>
      <point x="122" y="647" type="line"/>
      <point x="81" y="647" type="line"/>
      <point x="63" y="576"/>
      <point x="57" y="543"/>
      <point x="57" y="502" type="curve" smooth="yes"/>
      <point x="57" y="421"/>
      <point x="81" y="393"/>
      <point x="146" y="393" type="curve" smooth="yes"/>
      <point x="441" y="393" type="line" smooth="yes"/>
      <point x="460" y="393"/>
      <point x="471" y="384"/>
      <point x="471" y="364" type="curve" smooth="yes"/>
      <point x="471" y="285" type="line" smooth="yes"/>
      <point x="471" y="272"/>
      <point x="467" y="263"/>
      <point x="450" y="254" type="curve" smooth="yes"/>
      <point x="302" y="173" type="line" smooth="yes"/>
      <point x="267" y="154"/>
      <point x="259" y="117"/>
      <point x="259" y="73" type="curve" smooth="yes"/>
      <point x="259" y="42" type="line" smooth="yes"/>
      <point x="259" y="6"/>
      <point x="273" y="-7"/>
    </contour>
    <contour>
      <point x="68" y="-240" type="line"/>
      <point x="89" y="-240" type="line"/>
      <point x="111" y="-232"/>
      <point x="124" y="-222"/>
      <point x="146" y="-199" type="curve"/>
      <point x="134" y="321" type="line"/>
      <point x="122" y="338" type="line"/>
      <point x="100" y="328" type="line" smooth="yes"/>
      <point x="78" y="318"/>
      <point x="68" y="283"/>
      <point x="68" y="216" type="curve" smooth="yes"/>
    </contour>
  </outline>
</glyph>
<glyph name="resh-hb" format="2">
  <advance width="509"/>
  <unicode hex="05E8"/>
  <anchor x="422" y="0" name="bottom"/>
  <anchor x="141" y="0" name="bottomleft"/>
  <anchor x="206" y="297" name="center"/>
  <anchor x="192" y="536" name="top"/>
  <anchor x="-11" y="536" name="topleft"/>
  <outline>
    <contour>
      <point x="381" y="-7" type="line"/>
      <point x="402" y="-7" type="line"/>
      <point x="430" y="2"/>
      <point x="440" y="9"/>
      <point x="462" y="31" type="curve"/>
      <point x="447" y="411" type="line" smooth="yes"/>
      <point x="442" y="529"/>
      <point x="394" y="592"/>
      <point x="291" y="592" type="curve" smooth="yes"/>
      <point x="116" y="592" type="line" smooth="yes"/>
      <point x="85" y="592"/>
      <point x="72" y="604"/>
      <point x="72" y="625" type="curve" smooth="yes"/>
      <point x="72" y="647" type="line"/>
      <point x="31" y="647" type="line"/>
      <point x="13" y="576"/>
      <point x="7" y="543"/>
      <point x="7" y="502" type="curve" smooth="yes"/>
      <point x="7" y="421"/>
      <point x="31" y="393"/>
      <point x="96" y="393" type="curve" smooth="yes"/>
      <point x="313" y="393" type="line" smooth="yes"/>
      <point x="370" y="393"/>
      <point x="381" y="381"/>
      <point x="381" y="326" type="curve" smooth="yes"/>
    </contour>
  </outline>
</glyph>
<glyph name="shin-hb" format="2">
  <advance width="763"/>
  <unicode hex="05E9"/>
  <anchor x="373" y="0" name="bottom"/>
  <anchor x="86" y="0" name="bottomleft"/>
  <anchor x="521" y="312" name="center"/>
  <anchor x="177" y="536" name="top"/>
  <anchor x="-1" y="536" name="topleft"/>
  <anchor x="647" y="536" name="topright"/>
  <outline>
    <contour>
      <point x="119" y="0" type="curve"/>
      <point x="474" y="0" type="line" smooth="yes"/>
      <point x="567" y="0"/>
      <point x="651" y="81"/>
      <point x="695" y="272" type="curve" smooth="yes"/>
      <point x="739" y="464" type="line" smooth="yes"/>
      <point x="751" y="516"/>
      <point x="734" y="580"/>
      <point x="669" y="587" type="curve" smooth="yes"/>
      <point x="634" y="591" type="line" smooth="yes"/>
      <point x="609" y="594"/>
      <point x="596" y="605"/>
      <point x="596" y="622" type="curve" smooth="yes"/>
      <point x="596" y="647" type="line"/>
      <point x="556" y="647" type="line"/>
      <point x="538" y="591"/>
      <point x="531" y="538"/>
      <point x="531" y="495" type="curve" smooth="yes"/>
      <point x="531" y="431"/>
      <point x="546" y="400"/>
      <point x="600" y="394" type="curve" smooth="yes"/>
      <point x="662" y="387" type="line"/>
      <point x="650" y="346" type="line" smooth="yes"/>
      <point x="612" y="216"/>
      <point x="572" y="199"/>
      <point x="473" y="199" type="curve" smooth="yes"/>
      <point x="389" y="199" type="line"/>
      <point x="428" y="386" type="line"/>
      <point x="477" y="381" type="line"/>
      <point x="487" y="419"/>
      <point x="495" y="453"/>
      <point x="495" y="490" type="curve" smooth="yes"/>
      <point x="495" y="549"/>
      <point x="474" y="581"/>
      <point x="423" y="587" type="curve" smooth="yes"/>
      <point x="388" y="591" type="line" smooth="yes"/>
      <point x="363" y="594"/>
      <point x="350" y="605"/>
      <point x="350" y="622" type="curve" smooth="yes"/>
      <point x="350" y="647" type="line"/>
      <point x="310" y="647" type="line"/>
      <point x="292" y="591"/>
      <point x="285" y="538"/>
      <point x="285" y="495" type="curve" smooth="yes"/>
      <point x="285" y="431"/>
      <point x="300" y="400"/>
      <point x="354" y="394" type="curve"/>
      <point x="359" y="394" type="line"/>
      <point x="318" y="199" type="line"/>
      <point x="158" y="199" type="line"/>
      <point x="151" y="223"/>
      <point x="145" y="261"/>
      <point x="145" y="289" type="curve" smooth="yes"/>
      <point x="145" y="321"/>
      <point x="153" y="358"/>
      <point x="161" y="388" type="curve"/>
      <point x="224" y="381" type="line"/>
      <point x="234" y="419"/>
      <point x="242" y="453"/>
      <point x="242" y="490" type="curve" smooth="yes"/>
      <point x="242" y="549"/>
      <point x="221" y="581"/>
      <point x="170" y="587" type="curve" smooth="yes"/>
      <point x="135" y="591" type="line" smooth="yes"/>
      <point x="110" y="594"/>
      <point x="97" y="605"/>
      <point x="97" y="622" type="curve" smooth="yes"/>
      <point x="97" y="647" type="line"/>
      <point x="57" y="647" type="line"/>
      <point x="39" y="591"/>
      <point x="32" y="538"/>
      <point x="32" y="495" type="curve" smooth="yes"/>
      <point x="32" y="433"/>
      <point x="41" y="414"/>
      <point x="95" y="396" type="curve" smooth="yes"/>
      <point x="98" y="395" type="line"/>
      <point x="87" y="356"/>
      <point x="79" y="312"/>
      <point x="79" y="277" type="curve" smooth="yes"/>
      <point x="79" y="223"/>
      <point x="97" y="96"/>
    </contour>
  </outline>
</glyph>
<glyph name="tav-hb" format="2">
  <advance width="619"/>
  <unicode hex="05EA"/>
  <anchor x="350" y="0" name="bottom"/>
  <anchor x="73" y="0" name="bottomleft"/>
  <anchor x="337" y="297" name="center"/>
  <anchor x="285" y="536" name="top"/>
  <anchor x="7" y="536" name="topleft"/>
  <outline>
    <contour>
      <point x="491" y="-7" type="line"/>
      <point x="512" y="-7" type="line"/>
      <point x="540" y="2"/>
      <point x="550" y="9"/>
      <point x="572" y="31" type="curve"/>
      <point x="557" y="411" type="line" smooth="yes"/>
      <point x="552" y="529"/>
      <point x="504" y="592"/>
      <point x="401" y="592" type="curve" smooth="yes"/>
      <point x="168" y="592" type="line" smooth="yes"/>
      <point x="137" y="592"/>
      <point x="124" y="604"/>
      <point x="124" y="625" type="curve" smooth="yes"/>
      <point x="124" y="647" type="line"/>
      <point x="83" y="647" type="line"/>
      <point x="65" y="576"/>
      <point x="59" y="543"/>
      <point x="59" y="502" type="curve" smooth="yes"/>
      <point x="59" y="421"/>
      <point x="83" y="393"/>
      <point x="148" y="393" type="curve" smooth="yes"/>
      <point x="423" y="393" type="line" smooth="yes"/>
      <point x="480" y="393"/>
      <point x="491" y="381"/>
      <point x="491" y="326" type="curve" smooth="yes"/>
    </contour>
    <contour>
      <point x="10" y="0" type="line"/>
      <point x="198" y="0" type="line"/>
      <point x="208" y="40"/>
      <point x="209" y="77"/>
      <point x="209" y="100" type="curve" smooth="yes"/>
      <point x="209" y="168"/>
      <point x="182" y="220"/>
      <point x="182" y="282" type="curve" smooth="yes"/>
      <point x="182" y="322"/>
      <point x="193" y="358"/>
      <point x="207" y="393" type="curve"/>
      <point x="207" y="434" type="line"/>
      <point x="151" y="434" type="line"/>
      <point x="151" y="390" type="line"/>
      <point x="136" y="365"/>
      <point x="113" y="302"/>
      <point x="117" y="262" type="curve" smooth="yes"/>
      <point x="122" y="216" type="line" smooth="yes"/>
      <point x="123" y="205"/>
      <point x="119" y="199"/>
      <point x="108" y="199" type="curve" smooth="yes"/>
      <point x="26" y="199" type="line"/>
    </contour>
  </outline>
</glyph>
<glyph name="vavvav-hb" format="2">
  <advance width="614"/>
  <unicode hex="05F0"/>
  <note>
vavvav
</note>
  <anchor x="220" y="0" name="bottom"/>
  <anchor x="-62" y="0" name="bottomleft"/>
  <anchor x="307" y="0" name="caret_2"/>
  <anchor x="96" y="297" name="center"/>
  <anchor x="163" y="536" name="top"/>
  <anchor x="-6" y="536" name="topleft"/>
  <outline>
    <contour>
      <point x="486" y="-7" type="line"/>
      <point x="507" y="-7" type="line"/>
      <point x="527" y="-2"/>
      <point x="543" y="6"/>
      <point x="567" y="30" type="curve"/>
      <point x="552" y="502" type="line" smooth="yes"/>
      <point x="550" y="572"/>
      <point x="533" y="592"/>
      <point x="481" y="592" type="curve" smooth="yes"/>
      <point x="438" y="592" type="line" smooth="yes"/>
      <point x="407" y="592"/>
      <point x="394" y="604"/>
      <point x="394" y="625" type="curve" smooth="yes"/>
      <point x="394" y="647" type="line"/>
      <point x="353" y="647" type="line"/>
      <point x="335" y="576"/>
      <point x="329" y="545"/>
      <point x="329" y="495" type="curve" smooth="yes"/>
      <point x="329" y="421"/>
      <point x="355" y="393"/>
      <point x="418" y="393" type="curve" smooth="yes"/>
      <point x="448" y="393" type="line" smooth="yes"/>
      <point x="483" y="393"/>
      <point x="486" y="388"/>
      <point x="486" y="355" type="curve" smooth="yes"/>
    </contour>
    <contour>
      <point x="179" y="-7" type="line"/>
      <point x="200" y="-7" type="line"/>
      <point x="220" y="-2"/>
      <point x="236" y="6"/>
      <point x="260" y="30" type="curve"/>
      <point x="245" y="502" type="line" smooth="yes"/>
      <point x="243" y="572"/>
      <point x="226" y="592"/>
      <point x="174" y="592" type="curve" smooth="yes"/>
      <point x="131" y="592" type="line" smooth="yes"/>
      <point x="100" y="592"/>
      <point x="87" y="604"/>
      <point x="87" y="625" type="curve" smooth="yes"/>
      <point x="87" y="647" type="line"/>
      <point x="46" y="647" type="line"/>
      <point x="28" y="576"/>
      <point x="22" y="545"/>
      <point x="22" y="495" type="curve" smooth="yes"/>
      <point x="22" y="421"/>
      <point x="48" y="393"/>
      <point x="111" y="393" type="curve" smooth="yes"/>
      <point x="141" y="393" type="line" smooth="yes"/>
      <point x="176" y="393"/>
      <point x="179" y="388"/>
      <point x="179" y="355" type="curve" smooth="yes"/>
    </contour>
  </outline>
</glyph>
<glyph name="geresh-hb" format="2">
  <advance width="293"/>
  <unicode hex="05F3"/>
  <outline>
    <contour>
      <point x="56" y="369" type="line"/>
      <point x="187" y="402"/>
      <point x="237" y="465"/>
      <point x="237" y="546" type="curve" smooth="yes"/>
      <point x="237" y="619"/>
      <point x="203" y="647"/>
      <point x="139" y="647" type="curve" smooth="yes"/>
      <point x="97" y="647"/>
      <point x="65" y="622"/>
      <point x="65" y="575" type="curve" smooth="yes"/>
      <point x="65" y="515"/>
      <point x="135" y="516"/>
      <point x="135" y="482" type="curve" smooth="yes"/>
      <point x="135" y="465"/>
      <point x="106" y="435"/>
      <point x="56" y="425" type="curve"/>
    </contour>
  </outline>
</glyph>
<glyph name="gershayim-hb" format="2">
  <advance width="501"/>
  <unicode hex="05F4"/>
  <outline>
    <contour>
      <point x="56" y="369" type="line"/>
      <point x="187" y="402"/>
      <point x="237" y="465"/>
      <point x="237" y="546" type="curve" smooth="yes"/>
      <point x="237" y="619"/>
      <point x="203" y="647"/>
      <point x="139" y="647" type="curve" smooth="yes"/>
      <point x="97" y="647"/>
      <point x="65" y="622"/>
      <point x="65" y="575" type="curve" smooth="yes"/>
      <point x="65" y="515"/>
      <point x="135" y="516"/>
      <point x="135" y="482" type="curve" smooth="yes"/>
      <point x="135" y="465"/>
      <point x="106" y="435"/>
      <point x="56" y="425" type="curve"/>
    </contour>
    <contour>
      <point x="264" y="369" type="line"/>
      <point x="395" y="402"/>
      <point x="445" y="465"/>
      <point x="445" y="546" type="curve" smooth="yes"/>
      <point x="445" y="619"/>
      <point x="411" y="647"/>
      <point x="347" y="647" type="curve" smooth="yes"/>
      <point x="305" y="647"/>
      <point x="273" y="622"/>
      <point x="273" y="575" type="curve" smooth="yes"/>
      <point x="273" y="515"/>
      <point x="343" y="516"/>
      <point x="343" y="482" type="curve" smooth="yes"/>
      <point x="343" y="465"/>
      <point x="314" y="435"/>
      <point x="264" y="425" type="curve"/>
    </contour>
  </outline>
</glyph>
<glyph name="sheqel" format="2">
  <advance width="757"/>
  <unicode hex="20AA"/>
  <note>
sheqel
</note>
  <outline>
    <contour>
      <point x="306" y="0" type="curve"/>
      <point x="488" y="0" type="line" smooth="yes"/>
      <point x="592" y="0"/>
      <point x="657" y="60"/>
      <point x="690" y="243" type="curve" smooth="yes"/>
      <point x="730" y="494" type="line" smooth="yes"/>
      <point x="740" y="556"/>
      <point x="714" y="582"/>
      <point x="663" y="589" type="curve" smooth="yes"/>
      <point x="648" y="591" type="line" smooth="yes"/>
      <point x="623" y="594"/>
      <point x="610" y="605"/>
      <point x="610" y="622" type="curve" smooth="yes"/>
      <point x="610" y="647" type="line"/>
      <point x="570" y="647" type="line"/>
      <point x="552" y="591"/>
      <point x="545" y="538"/>
      <point x="545" y="495" type="curve" smooth="yes"/>
      <point x="545" y="431"/>
      <point x="560" y="401"/>
      <point x="614" y="394" type="curve" smooth="yes"/>
      <point x="658" y="388" type="line"/>
      <point x="651" y="346" type="line" smooth="yes"/>
      <point x="628" y="211"/>
      <point x="583" y="199"/>
      <point x="487" y="199" type="curve" smooth="yes"/>
      <point x="345" y="199" type="line"/>
      <point x="331" y="245"/>
      <point x="328" y="298"/>
      <point x="335" y="362" type="curve"/>
      <point x="283" y="362" type="line"/>
      <point x="275" y="328"/>
      <point x="266" y="296"/>
      <point x="266" y="255" type="curve" smooth="yes"/>
      <point x="266" y="196"/>
      <point x="284" y="96"/>
    </contour>
    <contour>
      <point x="107" y="-7" type="line"/>
      <point x="128" y="-7" type="line"/>
      <point x="156" y="2"/>
      <point x="166" y="9"/>
      <point x="188" y="31" type="curve"/>
      <point x="177" y="393" type="line"/>
      <point x="437" y="393" type="line"/>
      <point x="437" y="391" type="line"/>
      <point x="431" y="369"/>
      <point x="423" y="344"/>
      <point x="423" y="245" type="curve" smooth="yes"/>
      <point x="423" y="229" type="line"/>
      <point x="444" y="229" type="line"/>
      <point x="472" y="238"/>
      <point x="482" y="245"/>
      <point x="504" y="267" type="curve"/>
      <point x="492" y="398" type="line"/>
      <point x="517" y="407" type="line"/>
      <point x="517" y="548" type="line" smooth="yes"/>
      <point x="517" y="579"/>
      <point x="505" y="592"/>
      <point x="477" y="592" type="curve" smooth="yes"/>
      <point x="166" y="592" type="line" smooth="yes"/>
      <point x="135" y="592"/>
      <point x="122" y="604"/>
      <point x="122" y="625" type="curve" smooth="yes"/>
      <point x="122" y="647" type="line"/>
      <point x="81" y="647" type="line"/>
      <point x="63" y="576"/>
      <point x="57" y="542"/>
      <point x="57" y="505" type="curve" smooth="yes"/>
      <point x="57" y="435"/>
      <point x="79" y="395"/>
      <point x="119" y="395" type="curve" smooth="yes"/>
      <point x="121" y="395" type="line"/>
      <point x="121" y="393" type="line"/>
      <point x="115" y="371"/>
      <point x="107" y="344"/>
      <point x="107" y="245" type="curve" smooth="yes"/>
    </contour>
  </outline>
</glyph>
<glyph name="judeospanishvarika-hb" format="2">
  <unicode hex="FB1E"/>
  <note>
uniFB1E
</note>
  <anchor x="162" y="536" name="_top"/>
  <outline>
    <contour>
      <point x="275" y="788" type="curve"/>
      <point x="221" y="785" type="line"/>
      <point x="221" y="746"/>
      <point x="199" y="725"/>
      <point x="162" y="725" type="curve" smooth="yes"/>
      <point x="125" y="725"/>
      <point x="103" y="754"/>
      <point x="103" y="788" type="curve"/>
      <point x="50" y="785" type="line"/>
      <point x="50" y="715"/>
      <point x="91" y="668"/>
      <point x="162" y="668" type="curve" smooth="yes"/>
      <point x="234" y="668"/>
      <point x="275" y="718"/>
    </contour>
  </outline>
</glyph>
<glyph name="ayinaltone-hb" format="2">
  <advance width="557"/>
  <unicode hex="FB20"/>
  <note>
alternativeayin
</note>
  <anchor x="232" y="0" name="bottom"/>
  <anchor x="-40" y="0" name="bottomleft"/>
  <anchor x="285" y="536" name="top"/>
  <anchor x="-3" y="536" name="topleft"/>
  <outline>
    <contour>
      <point x="10" y="0" type="line"/>
      <point x="268" y="0" type="line" smooth="yes"/>
      <point x="401" y="0"/>
      <point x="475" y="154"/>
      <point x="510" y="346" type="curve" smooth="yes"/>
      <point x="535" y="483" type="line" smooth="yes"/>
      <point x="543" y="527"/>
      <point x="525" y="583"/>
      <point x="474" y="587" type="curve" smooth="yes"/>
      <point x="428" y="591" type="line" smooth="yes"/>
      <point x="403" y="593"/>
      <point x="390" y="605"/>
      <point x="390" y="622" type="curve" smooth="yes"/>
      <point x="390" y="647" type="line"/>
      <point x="350" y="647" type="line"/>
      <point x="332" y="591"/>
      <point x="325" y="538"/>
      <point x="325" y="495" type="curve" smooth="yes"/>
      <point x="325" y="431"/>
      <point x="340" y="400"/>
      <point x="394" y="394" type="curve" smooth="yes"/>
      <point x="456" y="387" type="line"/>
      <point x="442" y="346" type="line" smooth="yes"/>
      <point x="399" y="220"/>
      <point x="363" y="199"/>
      <point x="267" y="199" type="curve" smooth="yes"/>
      <point x="26" y="199" type="line"/>
    </contour>
    <contour>
      <point x="198" y="120" type="line"/>
      <point x="285" y="161" type="line"/>
      <point x="191" y="311" type="line" smooth="yes"/>
      <point x="170" y="345"/>
      <point x="162" y="363"/>
      <point x="170" y="421" type="curve"/>
      <point x="116" y="428" type="line"/>
      <point x="97" y="367"/>
      <point x="112" y="279"/>
      <point x="139" y="229" type="curve" smooth="yes"/>
    </contour>
    <contour>
      <point x="223" y="381" type="line"/>
      <point x="233" y="419"/>
      <point x="241" y="453"/>
      <point x="241" y="490" type="curve" smooth="yes"/>
      <point x="241" y="549"/>
      <point x="220" y="581"/>
      <point x="169" y="587" type="curve" smooth="yes"/>
      <point x="134" y="591" type="line" smooth="yes"/>
      <point x="109" y="594"/>
      <point x="96" y="605"/>
      <point x="96" y="622" type="curve" smooth="yes"/>
      <point x="96" y="647" type="line"/>
      <point x="56" y="647" type="line"/>
      <point x="38" y="591"/>
      <point x="31" y="538"/>
      <point x="31" y="495" type="curve" smooth="yes"/>
      <point x="31" y="431"/>
      <point x="46" y="400"/>
      <point x="100" y="394" type="curve" smooth="yes"/>
    </contour>
  </outline>
</glyph>
<glyph name="widealef-hb" format="2">
  <advance width="914"/>
  <unicode hex="FB21"/>
  <note>
alefwide
</note>
  <outline>
    <contour>
      <point x="816" y="-10" type="curve"/>
      <point x="848" y="-10" type="line"/>
      <point x="870" y="34"/>
      <point x="880" y="68"/>
      <point x="880" y="106" type="curve" smooth="yes"/>
      <point x="880" y="157"/>
      <point x="868" y="213"/>
      <point x="829" y="231" type="curve" smooth="yes"/>
      <point x="151" y="540" type="line" smooth="yes"/>
      <point x="116" y="556"/>
      <point x="109" y="596"/>
      <point x="109" y="622" type="curve" smooth="yes"/>
      <point x="109" y="647" type="line"/>
      <point x="69" y="647" type="line"/>
      <point x="48" y="591"/>
      <point x="39" y="548"/>
      <point x="39" y="515" type="curve" smooth="yes"/>
      <point x="39" y="457"/>
      <point x="61" y="400"/>
      <point x="104" y="381" type="curve" smooth="yes"/>
      <point x="760" y="89" type="line" smooth="yes"/>
      <point x="818" y="63"/>
      <point x="816" y="16"/>
    </contour>
    <contour>
      <point x="32" y="0" type="line"/>
      <point x="204" y="0" type="line"/>
      <point x="230" y="78"/>
      <point x="216" y="128"/>
      <point x="189" y="170" type="curve" smooth="yes"/>
      <point x="162" y="212" type="line" smooth="yes"/>
      <point x="129" y="263"/>
      <point x="130" y="289"/>
      <point x="159" y="330" type="curve" smooth="yes"/>
      <point x="182" y="363" type="line"/>
      <point x="146" y="400" type="line"/>
      <point x="102" y="353" type="line" smooth="yes"/>
      <point x="61" y="309"/>
      <point x="41" y="243"/>
      <point x="56" y="187" type="curve" smooth="yes"/>
      <point x="73" y="123" type="line" smooth="yes"/>
      <point x="78" y="104"/>
      <point x="71" y="97"/>
      <point x="54" y="97" type="curve" smooth="yes"/>
      <point x="32" y="97" type="line"/>
    </contour>
    <contour>
      <point x="766" y="253" type="line"/>
      <point x="766" y="291"/>
      <point x="770" y="313"/>
      <point x="797" y="351" type="curve" smooth="yes"/>
      <point x="840" y="412" type="line"/>
      <point x="788" y="432" type="line"/>
      <point x="757" y="388" type="line" smooth="yes"/>
      <point x="735" y="356"/>
      <point x="708" y="318"/>
      <point x="708" y="282" type="curve"/>
    </contour>
    <contour>
      <point x="874" y="381" type="line"/>
      <point x="884" y="419"/>
      <point x="892" y="453"/>
      <point x="892" y="490" type="curve" smooth="yes"/>
      <point x="892" y="549"/>
      <point x="871" y="581"/>
      <point x="820" y="587" type="curve" smooth="yes"/>
      <point x="785" y="591" type="line" smooth="yes"/>
      <point x="760" y="594"/>
      <point x="747" y="605"/>
      <point x="747" y="622" type="curve" smooth="yes"/>
      <point x="747" y="647" type="line"/>
      <point x="707" y="647" type="line"/>
      <point x="689" y="591"/>
      <point x="682" y="538"/>
      <point x="682" y="495" type="curve" smooth="yes"/>
      <point x="682" y="431"/>
      <point x="697" y="400"/>
      <point x="751" y="394" type="curve" smooth="yes"/>
    </contour>
  </outline>
</glyph>
<glyph name="widedalet-hb" format="2">
  <advance width="813"/>
  <unicode hex="FB22"/>
  <note>
daletwide
</note>
  <outline>
    <contour>
      <point x="649" y="-7" type="line"/>
      <point x="670" y="-7" type="line"/>
      <point x="698" y="2"/>
      <point x="708" y="9"/>
      <point x="730" y="31" type="curve"/>
      <point x="718" y="393" type="line"/>
      <point x="781" y="393" type="line"/>
      <point x="781" y="548" type="line" smooth="yes"/>
      <point x="781" y="579"/>
      <point x="769" y="592"/>
      <point x="741" y="592" type="curve" smooth="yes"/>
      <point x="116" y="592" type="line" smooth="yes"/>
      <point x="85" y="592"/>
      <point x="72" y="604"/>
      <point x="72" y="625" type="curve" smooth="yes"/>
      <point x="72" y="647" type="line"/>
      <point x="31" y="647" type="line"/>
      <point x="13" y="576"/>
      <point x="7" y="545"/>
      <point x="7" y="495" type="curve" smooth="yes"/>
      <point x="7" y="421"/>
      <point x="33" y="393"/>
      <point x="96" y="393" type="curve" smooth="yes"/>
      <point x="663" y="393" type="line"/>
      <point x="663" y="391" type="line"/>
      <point x="657" y="369"/>
      <point x="649" y="344"/>
      <point x="649" y="245" type="curve" smooth="yes"/>
    </contour>
  </outline>
</glyph>
<glyph name="widehe-hb" format="2">
  <advance width="919"/>
  <unicode hex="FB23"/>
  <note>
hewide
</note>
  <outline>
    <contour>
      <point x="768" y="-7" type="line"/>
      <point x="789" y="-7" type="line"/>
      <point x="817" y="2"/>
      <point x="827" y="9"/>
      <point x="849" y="31" type="curve"/>
      <point x="837" y="398" type="line"/>
      <point x="862" y="407" type="line"/>
      <point x="862" y="548" type="line" smooth="yes"/>
      <point x="862" y="579"/>
      <point x="850" y="592"/>
      <point x="822" y="592" type="curve" smooth="yes"/>
      <point x="151" y="592" type="line" smooth="yes"/>
      <point x="120" y="592"/>
      <point x="107" y="604"/>
      <point x="107" y="625" type="curve" smooth="yes"/>
      <point x="107" y="647" type="line"/>
      <point x="66" y="647" type="line"/>
      <point x="48" y="576"/>
      <point x="42" y="545"/>
      <point x="42" y="495" type="curve" smooth="yes"/>
      <point x="42" y="421"/>
      <point x="68" y="393"/>
      <point x="131" y="393" type="curve" smooth="yes"/>
      <point x="782" y="393" type="line"/>
      <point x="782" y="391" type="line"/>
      <point x="776" y="369"/>
      <point x="768" y="344"/>
      <point x="768" y="245" type="curve" smooth="yes"/>
    </contour>
    <contour>
      <point x="60" y="-7" type="line"/>
      <point x="81" y="-7" type="line"/>
      <point x="107" y="4"/>
      <point x="120" y="11"/>
      <point x="141" y="30" type="curve"/>
      <point x="140" y="310" type="line"/>
      <point x="127" y="328" type="line"/>
      <point x="103" y="315" type="line" smooth="yes"/>
      <point x="78" y="301"/>
      <point x="60" y="265"/>
      <point x="60" y="206" type="curve" smooth="yes"/>
    </contour>
  </outline>
</glyph>
<glyph name="widekaf-hb" format="2">
  <advance width="866"/>
  <unicode hex="FB24"/>
  <note>
kafwide
</note>
  <outline>
    <contour>
      <point x="27" y="0" type="line"/>
      <point x="671" y="0" type="line" smooth="yes"/>
      <point x="767" y="0"/>
      <point x="819" y="73"/>
      <point x="819" y="204" type="curve" smooth="yes"/>
      <point x="819" y="411" type="line" smooth="yes"/>
      <point x="819" y="529"/>
      <point x="766" y="592"/>
      <point x="663" y="592" type="curve" smooth="yes"/>
      <point x="159" y="592" type="line" smooth="yes"/>
      <point x="128" y="592"/>
      <point x="115" y="604"/>
      <point x="115" y="625" type="curve" smooth="yes"/>
      <point x="115" y="647" type="line"/>
      <point x="74" y="647" type="line"/>
      <point x="56" y="576"/>
      <point x="50" y="545"/>
      <point x="50" y="495" type="curve" smooth="yes"/>
      <point x="50" y="421"/>
      <point x="76" y="393"/>
      <point x="139" y="393" type="curve" smooth="yes"/>
      <point x="655" y="393" type="line" smooth="yes"/>
      <point x="732" y="393"/>
      <point x="753" y="378"/>
      <point x="753" y="326" type="curve" smooth="yes"/>
      <point x="753" y="262" type="line" smooth="yes"/>
      <point x="753" y="216"/>
      <point x="729" y="199"/>
      <point x="654" y="199" type="curve" smooth="yes"/>
      <point x="77" y="199" type="line"/>
    </contour>
  </outline>
</glyph>
<glyph name="widelamed-hb" format="2">
  <advance width="819"/>
  <unicode hex="FB25"/>
  <note>
lamedwide
</note>
  <outline>
    <contour>
      <point x="536" y="-7" type="curve" smooth="yes"/>
      <point x="561" y="-7"/>
      <point x="576" y="5"/>
      <point x="576" y="42" type="curve" smooth="yes"/>
      <point x="576" y="82" type="line" smooth="yes"/>
      <point x="576" y="107"/>
      <point x="578" y="116"/>
      <point x="604" y="134" type="curve" smooth="yes"/>
      <point x="747" y="233" type="line" smooth="yes"/>
      <point x="774" y="251"/>
      <point x="782" y="275"/>
      <point x="782" y="314" type="curve" smooth="yes"/>
      <point x="782" y="473" type="line" smooth="yes"/>
      <point x="782" y="559"/>
      <point x="742" y="592"/>
      <point x="679" y="592" type="curve" smooth="yes"/>
      <point x="141" y="592" type="line" smooth="yes"/>
      <point x="124" y="592"/>
      <point x="121" y="601"/>
      <point x="124" y="611" type="curve" smooth="yes"/>
      <point x="152" y="718" type="line" smooth="yes"/>
      <point x="164" y="762"/>
      <point x="151" y="798"/>
      <point x="123" y="802" type="curve" smooth="yes"/>
      <point x="91" y="807" type="line" smooth="yes"/>
      <point x="65" y="811"/>
      <point x="62" y="818"/>
      <point x="62" y="835" type="curve" smooth="yes"/>
      <point x="62" y="848" type="line"/>
      <point x="42" y="848" type="line"/>
      <point x="30" y="828"/>
      <point x="7" y="785"/>
      <point x="7" y="740" type="curve" smooth="yes"/>
      <point x="7" y="698"/>
      <point x="16" y="680"/>
      <point x="39" y="675" type="curve" smooth="yes"/>
      <point x="61" y="670" type="line" smooth="yes"/>
      <point x="67" y="669"/>
      <point x="68" y="664"/>
      <point x="65" y="652" type="curve" smooth="yes"/>
      <point x="63" y="644"/>
      <point x="30" y="524"/>
      <point x="30" y="479" type="curve" smooth="yes"/>
      <point x="30" y="427"/>
      <point x="58" y="393"/>
      <point x="105" y="393" type="curve" smooth="yes"/>
      <point x="683" y="393" type="line" smooth="yes"/>
      <point x="702" y="393"/>
      <point x="713" y="384"/>
      <point x="713" y="364" type="curve" smooth="yes"/>
      <point x="713" y="309" type="line" smooth="yes"/>
      <point x="713" y="296"/>
      <point x="709" y="290"/>
      <point x="692" y="278" type="curve" smooth="yes"/>
      <point x="539" y="173" type="line" smooth="yes"/>
      <point x="504" y="149"/>
      <point x="496" y="117"/>
      <point x="496" y="73" type="curve" smooth="yes"/>
      <point x="496" y="42" type="line" smooth="yes"/>
      <point x="496" y="6"/>
      <point x="510" y="-7"/>
    </contour>
  </outline>
</glyph>
<glyph name="finalwidemem-hb" format="2">
  <advance width="899"/>
  <unicode hex="FB26"/>
  <note>
finalmemwide
</note>
  <outline>
    <contour>
      <point x="106" y="0" type="curve" smooth="yes"/>
      <point x="765" y="0" type="line" smooth="yes"/>
      <point x="812" y="0"/>
      <point x="842" y="40"/>
      <point x="842" y="100" type="curve" smooth="yes"/>
      <point x="842" y="431" type="line" smooth="yes"/>
      <point x="842" y="532"/>
      <point x="796" y="592"/>
      <point x="716" y="592" type="curve" smooth="yes"/>
      <point x="146" y="592" type="line" smooth="yes"/>
      <point x="115" y="592"/>
      <point x="102" y="604"/>
      <point x="102" y="625" type="curve" smooth="yes"/>
      <point x="102" y="647" type="line"/>
      <point x="61" y="647" type="line"/>
      <point x="43" y="576"/>
      <point x="37" y="545"/>
      <point x="37" y="495" type="curve" smooth="yes"/>
      <point x="37" y="421"/>
      <point x="63" y="393"/>
      <point x="126" y="393" type="curve" smooth="yes"/>
      <point x="728" y="393" type="line" smooth="yes"/>
      <point x="756" y="393"/>
      <point x="773" y="386"/>
      <point x="773" y="346" type="curve" smooth="yes"/>
      <point x="773" y="223" type="line" smooth="yes"/>
      <point x="773" y="204"/>
      <point x="769" y="199"/>
      <point x="736" y="199" type="curve" smooth="yes"/>
      <point x="117" y="199" type="line"/>
      <point x="117" y="227" type="line" smooth="yes"/>
      <point x="117" y="298"/>
      <point x="138" y="361"/>
      <point x="184" y="393" type="curve"/>
      <point x="184" y="446" type="line"/>
      <point x="116" y="446" type="line"/>
      <point x="116" y="391" type="line"/>
      <point x="84" y="354"/>
      <point x="48" y="308"/>
      <point x="48" y="216" type="curve" smooth="yes"/>
      <point x="48" y="96" type="line" smooth="yes"/>
      <point x="48" y="35"/>
      <point x="69" y="0"/>
    </contour>
  </outline>
</glyph>
<glyph name="wideresh-hb" format="2">
  <advance width="809"/>
  <unicode hex="FB27"/>
  <note>
reshwide
</note>
  <outline>
    <contour>
      <point x="681" y="-7" type="line"/>
      <point x="702" y="-7" type="line"/>
      <point x="730" y="2"/>
      <point x="740" y="9"/>
      <point x="762" y="31" type="curve"/>
      <point x="747" y="411" type="line" smooth="yes"/>
      <point x="742" y="529"/>
      <point x="694" y="592"/>
      <point x="591" y="592" type="curve" smooth="yes"/>
      <point x="116" y="592" type="line" smooth="yes"/>
      <point x="85" y="592"/>
      <point x="72" y="604"/>
      <point x="72" y="625" type="curve" smooth="yes"/>
      <point x="72" y="647" type="line"/>
      <point x="31" y="647" type="line"/>
      <point x="13" y="576"/>
      <point x="7" y="543"/>
      <point x="7" y="502" type="curve" smooth="yes"/>
      <point x="7" y="421"/>
      <point x="31" y="393"/>
      <point x="96" y="393" type="curve" smooth="yes"/>
      <point x="613" y="393" type="line" smooth="yes"/>
      <point x="670" y="393"/>
      <point x="681" y="381"/>
      <point x="681" y="326" type="curve" smooth="yes"/>
    </contour>
  </outline>
</glyph>
<glyph name="widetav-hb" format="2">
  <advance width="919"/>
  <unicode hex="FB28"/>
  <note>
tavwide
</note>
  <outline>
    <contour>
      <point x="791" y="-7" type="line"/>
      <point x="812" y="-7" type="line"/>
      <point x="840" y="2"/>
      <point x="850" y="9"/>
      <point x="872" y="31" type="curve"/>
      <point x="857" y="411" type="line" smooth="yes"/>
      <point x="852" y="529"/>
      <point x="804" y="592"/>
      <point x="701" y="592" type="curve" smooth="yes"/>
      <point x="168" y="592" type="line" smooth="yes"/>
      <point x="137" y="592"/>
      <point x="124" y="604"/>
      <point x="124" y="625" type="curve" smooth="yes"/>
      <point x="124" y="647" type="line"/>
      <point x="83" y="647" type="line"/>
      <point x="65" y="576"/>
      <point x="59" y="543"/>
      <point x="59" y="502" type="curve" smooth="yes"/>
      <point x="59" y="421"/>
      <point x="83" y="393"/>
      <point x="148" y="393" type="curve" smooth="yes"/>
      <point x="723" y="393" type="line" smooth="yes"/>
      <point x="780" y="393"/>
      <point x="791" y="381"/>
      <point x="791" y="326" type="curve" smooth="yes"/>
    </contour>
    <contour>
      <point x="10" y="0" type="line"/>
      <point x="188" y="0" type="line"/>
      <point x="198" y="40"/>
      <point x="199" y="77"/>
      <point x="199" y="100" type="curve" smooth="yes"/>
      <point x="199" y="168"/>
      <point x="172" y="220"/>
      <point x="172" y="282" type="curve" smooth="yes"/>
      <point x="172" y="322"/>
      <point x="183" y="358"/>
      <point x="197" y="393" type="curve"/>
      <point x="197" y="434" type="line"/>
      <point x="141" y="434" type="line"/>
      <point x="141" y="390" type="line"/>
      <point x="129" y="358"/>
      <point x="101" y="302"/>
      <point x="106" y="262" type="curve" smooth="yes"/>
      <point x="112" y="216" type="line" smooth="yes"/>
      <point x="113" y="205"/>
      <point x="109" y="199"/>
      <point x="98" y="199" type="curve" smooth="yes"/>
      <point x="26" y="199" type="line"/>
    </contour>
  </outline>
</glyph>
<glyph name="alternativeplus-hb" format="2">
  <advance width="559"/>
  <unicode hex="FB29"/>
  <note>
alt_plussign
</note>
  <outline>
    <contour>
      <point x="65" y="318" type="line"/>
      <point x="494" y="318" type="line"/>
      <point x="494" y="397" type="line"/>
      <point x="319" y="397" type="line"/>
      <point x="319" y="572" type="line"/>
      <point x="239" y="572" type="line"/>
      <point x="239" y="397" type="line"/>
      <point x="65" y="397" type="line"/>
    </contour>
  </outline>
</glyph>
<glyph name="aleflamed-hb" format="2">
  <advance width="612"/>
  <unicode hex="FB4F"/>
  <note>
aleflamed
</note>
  <anchor x="251" y="0" name="caret_1"/>
  <outline>
    <contour>
      <point x="514" y="-10" type="curve"/>
      <point x="546" y="-10" type="line"/>
      <point x="568" y="34"/>
      <point x="578" y="68"/>
      <point x="578" y="106" type="curve" smooth="yes"/>
      <point x="578" y="157"/>
      <point x="560" y="204"/>
      <point x="527" y="231" type="curve" smooth="yes"/>
      <point x="149" y="540" type="line" smooth="yes"/>
      <point x="119" y="565"/>
      <point x="119" y="586"/>
      <point x="124" y="611" type="curve" smooth="yes"/>
      <point x="148" y="728" type="line" smooth="yes"/>
      <point x="157" y="773"/>
      <point x="141" y="798"/>
      <point x="113" y="803" type="curve" smooth="yes"/>
      <point x="91" y="807" type="line" smooth="yes"/>
      <point x="65" y="812"/>
      <point x="62" y="818"/>
      <point x="62" y="835" type="curve" smooth="yes"/>
      <point x="62" y="848" type="line"/>
      <point x="42" y="848" type="line"/>
      <point x="27" y="822"/>
      <point x="7" y="786"/>
      <point x="7" y="735" type="curve" smooth="yes"/>
      <point x="7" y="700"/>
      <point x="16" y="680"/>
      <point x="39" y="675" type="curve" smooth="yes"/>
      <point x="61" y="670" type="line" smooth="yes"/>
      <point x="67" y="669"/>
      <point x="71" y="663"/>
      <point x="68" y="651" type="curve" smooth="yes"/>
      <point x="65" y="638"/>
      <point x="37" y="565"/>
      <point x="37" y="513" type="curve" smooth="yes"/>
      <point x="37" y="460"/>
      <point x="65" y="411"/>
      <point x="102" y="381" type="curve" smooth="yes"/>
      <point x="458" y="89" type="line" smooth="yes"/>
      <point x="507" y="49"/>
      <point x="514" y="16"/>
    </contour>
    <contour>
      <point x="483" y="260" type="line"/>
      <point x="483" y="306"/>
      <point x="487" y="340"/>
      <point x="514" y="378" type="curve" smooth="yes"/>
      <point x="557" y="439" type="line"/>
      <point x="505" y="459" type="line"/>
      <point x="471" y="410" type="line" smooth="yes"/>
      <point x="449" y="378"/>
      <point x="425" y="328"/>
      <point x="425" y="309" type="curve"/>
    </contour>
    <contour>
      <point x="572" y="381" type="line"/>
      <point x="582" y="419"/>
      <point x="590" y="453"/>
      <point x="590" y="490" type="curve" smooth="yes"/>
      <point x="590" y="549"/>
      <point x="569" y="581"/>
      <point x="518" y="587" type="curve" smooth="yes"/>
      <point x="483" y="591" type="line" smooth="yes"/>
      <point x="458" y="594"/>
      <point x="445" y="605"/>
      <point x="445" y="622" type="curve" smooth="yes"/>
      <point x="445" y="647" type="line"/>
      <point x="405" y="647" type="line"/>
      <point x="387" y="591"/>
      <point x="380" y="538"/>
      <point x="380" y="495" type="curve" smooth="yes"/>
      <point x="380" y="431"/>
      <point x="395" y="400"/>
      <point x="449" y="394" type="curve" smooth="yes"/>
    </contour>
  </outline>
</glyph>
<glyph name="hatafpatah_zerowidthjoiner_siluqleft-hb" format="2">
  <anchor x="264" y="0" name="_bottom"/>
  <outline>
    <contour>
      <point x="50" y="-141" type="line"/>
      <point x="239" y="-141" type="line"/>
      <point x="242" y="-69" type="line"/>
      <point x="53" y="-69" type="line"/>
    </contour>
    <contour>
      <point x="272" y="-252" type="line"/>
      <point x="343" y="-249" type="line"/>
      <point x="343" y="-69" type="line"/>
      <point x="272" y="-72" type="line"/>
    </contour>
    <contour>
      <point x="424" y="-252" type="curve" smooth="yes"/>
      <point x="452" y="-252"/>
      <point x="475" y="-238"/>
      <point x="475" y="-210" type="curve" smooth="yes"/>
      <point x="475" y="-181"/>
      <point x="452" y="-168"/>
      <point x="424" y="-168" type="curve" smooth="yes"/>
      <point x="396" y="-168"/>
      <point x="373" y="-181"/>
      <point x="373" y="-210" type="curve" smooth="yes"/>
      <point x="373" y="-238"/>
      <point x="396" y="-252"/>
    </contour>
    <contour>
      <point x="424" y="-147" type="curve" smooth="yes"/>
      <point x="452" y="-147"/>
      <point x="475" y="-133"/>
      <point x="475" y="-105" type="curve" smooth="yes"/>
      <point x="475" y="-76"/>
      <point x="452" y="-63"/>
      <point x="424" y="-63" type="curve" smooth="yes"/>
      <point x="396" y="-63"/>
      <point x="373" y="-76"/>
      <point x="373" y="-105" type="curve" smooth="yes"/>
      <point x="373" y="-133"/>
      <point x="396" y="-147"/>
    </contour>
  </outline>
</glyph>
<glyph name="hatafsegol_zerowidthjoiner_siluqleft-hb" format="2">
  <anchor x="282" y="0" name="_bottom"/>
  <outline>
    <contour>
      <point x="310" y="-252" type="line"/>
      <point x="381" y="-249" type="line"/>
      <point x="381" y="-69" type="line"/>
      <point x="310" y="-72" type="line"/>
    </contour>
    <contour>
      <point x="165" y="-252" type="curve" smooth="yes"/>
      <point x="191" y="-252"/>
      <point x="216" y="-238"/>
      <point x="216" y="-210" type="curve" smooth="yes"/>
      <point x="216" y="-181"/>
      <point x="191" y="-168"/>
      <point x="165" y="-168" type="curve" smooth="yes"/>
      <point x="136" y="-168"/>
      <point x="114" y="-181"/>
      <point x="114" y="-210" type="curve"/>
      <point x="114" y="-238"/>
      <point x="136" y="-252"/>
    </contour>
    <contour>
      <point x="101" y="-147" type="curve" smooth="yes"/>
      <point x="129" y="-147"/>
      <point x="152" y="-133"/>
      <point x="152" y="-105" type="curve" smooth="yes"/>
      <point x="152" y="-76"/>
      <point x="129" y="-63"/>
      <point x="101" y="-63" type="curve" smooth="yes"/>
      <point x="73" y="-63"/>
      <point x="50" y="-76"/>
      <point x="50" y="-105" type="curve" smooth="yes"/>
      <point x="50" y="-133"/>
      <point x="73" y="-147"/>
    </contour>
    <contour>
      <point x="229" y="-147" type="curve" smooth="yes"/>
      <point x="255" y="-147"/>
      <point x="280" y="-133"/>
      <point x="280" y="-105" type="curve" smooth="yes"/>
      <point x="280" y="-76"/>
      <point x="255" y="-63"/>
      <point x="229" y="-63" type="curve" smooth="yes"/>
      <point x="200" y="-63"/>
      <point x="178" y="-76"/>
      <point x="178" y="-105" type="curve" smooth="yes"/>
      <point x="178" y="-133"/>
      <point x="200" y="-147"/>
    </contour>
    <contour>
      <point x="462" y="-252" type="curve" smooth="yes"/>
      <point x="490" y="-252"/>
      <point x="513" y="-238"/>
      <point x="513" y="-210" type="curve" smooth="yes"/>
      <point x="513" y="-181"/>
      <point x="490" y="-168"/>
      <point x="462" y="-168" type="curve" smooth="yes"/>
      <point x="434" y="-168"/>
      <point x="411" y="-181"/>
      <point x="411" y="-210" type="curve" smooth="yes"/>
      <point x="411" y="-238"/>
      <point x="434" y="-252"/>
    </contour>
    <contour>
      <point x="462" y="-147" type="curve" smooth="yes"/>
      <point x="490" y="-147"/>
      <point x="513" y="-133"/>
      <point x="513" y="-105" type="curve" smooth="yes"/>
      <point x="513" y="-76"/>
      <point x="490" y="-63"/>
      <point x="462" y="-63" type="curve" smooth="yes"/>
      <point x="434" y="-63"/>
      <point x="411" y="-76"/>
      <point x="411" y="-105" type="curve" smooth="yes"/>
      <point x="411" y="-133"/>
      <point x="434" y="-147"/>
    </contour>
  </outline>
</glyph>
